<svg width="61" height="58" viewBox="0 0 61 58" fill="none" xmlns="http://www.w3.org/2000/svg">
<rect width="61" height="58" rx="8" fill="#F7B4FF"/>
<g clip-path="url(#clip0_802_1483)">
<path d="M30.146 27.646C29.951 27.841 29.951 28.158 30.146 28.353C30.341 28.548 30.658 28.548 30.853 28.353L34.207 24.999H37.171C37.839 24.999 38.467 24.739 38.939 24.267L41.353 21.853C41.496 21.71 41.539 21.495 41.461 21.308C41.384 21.121 41.201 20.999 40.999 20.999H37.499V17.5C37.499 17.298 37.377 17.115 37.19 17.038C37.003 16.96 36.789 17.003 36.645 17.146L34.231 19.56C33.759 20.032 33.499 20.66 33.499 21.328V24.292L30.146 27.646ZM34.5 21.328C34.5 20.927 34.656 20.551 34.939 20.267L36.5 18.706V21.499C36.5 21.775 36.724 21.999 37 21.999H39.793L38.232 23.56C37.948 23.843 37.572 23.999 37.171 23.999H34.5V21.328ZM30.5 21.999C27.191 21.999 24.5 24.69 24.5 27.999C24.5 31.308 27.191 33.999 30.5 33.999C33.809 33.999 36.5 31.308 36.5 27.999C36.5 27.843 36.494 27.69 36.482 27.538C36.461 27.263 36.667 27.022 36.942 27.001C37.225 26.982 37.458 27.186 37.479 27.461C37.493 27.639 37.5 27.818 37.5 28C37.5 31.86 34.36 35 30.5 35C26.64 35 23.5 31.86 23.5 28C23.5 24.14 26.64 21 30.5 21C30.681 21 30.861 21.007 31.039 21.021C31.314 21.042 31.52 21.283 31.499 21.558C31.478 21.833 31.241 22.032 30.962 22.018C30.81 22.006 30.656 22 30.501 22L30.5 21.999ZM29.086 26.585C28.708 26.963 28.5 27.465 28.5 27.999C28.5 28.533 28.708 29.035 29.086 29.413C29.842 30.169 31.158 30.169 31.914 29.413C32.193 29.134 32.382 28.784 32.459 28.4C32.514 28.129 32.779 27.952 33.048 28.009C33.319 28.064 33.494 28.328 33.439 28.598C33.322 29.176 33.039 29.702 32.62 30.12C31.504 31.283 29.494 31.284 28.378 30.12C27.214 29.004 27.214 26.994 28.378 25.878C28.796 25.46 29.322 25.176 29.9 25.059C30.173 25.006 30.434 25.18 30.489 25.45C30.544 25.721 30.369 25.984 30.098 26.039C29.714 26.117 29.364 26.305 29.085 26.584L29.086 26.585ZM39.441 40.265C39.571 40.509 39.478 40.811 39.234 40.941C38.995 41.07 38.688 40.98 38.558 40.734L36.639 37.122C34.884 38.307 32.771 38.999 30.499 38.999C28.227 38.999 26.114 38.306 24.359 37.122L22.44 40.734C22.31 40.98 22.003 41.07 21.764 40.941C21.52 40.812 21.427 40.509 21.557 40.265L23.548 36.517C21.081 34.498 19.5 31.431 19.5 28C19.5 21.935 24.435 17 30.5 17C31.386 17 32.267 17.105 33.119 17.313C33.387 17.379 33.552 17.649 33.486 17.917C33.42 18.186 33.148 18.348 32.882 18.284C32.108 18.095 31.307 17.999 30.501 17.999C24.986 18 20.5 22.486 20.5 28C20.5 33.514 24.986 38 30.5 38C36.014 38 40.5 33.514 40.5 28C40.5 27.196 40.404 26.395 40.215 25.619C40.15 25.35 40.314 25.08 40.582 25.015C40.853 24.949 41.121 25.114 41.186 25.382C41.394 26.236 41.499 27.117 41.499 28.001C41.499 31.432 39.918 34.499 37.449 36.518L39.44 40.266L39.441 40.265Z" fill="black"/>
</g>
<defs>
<clipPath id="clip0_802_1483">
<rect width="24" height="24" fill="white" transform="translate(18.5 17)"/>
</clipPath>
</defs>
</svg>
