<svg width="24" height="24" viewBox="0 0 24 24" fill="none" xmlns="http://www.w3.org/2000/svg">
<path d="M12 1C5.93502 1 1.00002 5.935 1.00002 12C1.00002 17.91 5.62202 22.737 11.521 22.989C11.797 23.002 12.011 23.234 11.999 23.51C11.988 23.779 11.766 23.989 11.5 23.989H11.478C5.04102 23.714 -0.000976562 18.447 -0.000976562 12C2.34375e-05 5.383 5.38302 0 12 0C18.617 0 24 5.383 24 12C24 12.881 23.904 13.759 23.716 14.608C23.656 14.878 23.392 15.047 23.119 14.988C22.849 14.928 22.68 14.661 22.739 14.391C22.912 13.613 23 12.808 23 11.999C23 5.934 18.065 1 12 1ZM11.5 6.023C11.224 6.023 11 6.247 11 6.523V11.722L7.23502 14.076C7.00102 14.222 6.93002 14.531 7.07602 14.764C7.17102 14.916 7.33402 14.999 7.50002 14.999C7.59002 14.999 7.68202 14.975 7.76502 14.923L11.765 12.423C11.911 12.332 12 12.172 12 11.999V6.522C12 6.246 11.776 6.023 11.5 6.023ZM23.926 17.069C23.727 16.876 23.409 16.883 23.22 17.084L17.986 22.538C17.706 22.83 17.328 22.994 16.924 23H16.903C16.507 23 16.132 22.847 15.85 22.568L13.122 19.876C12.925 19.682 12.609 19.684 12.414 19.88C12.22 20.077 12.222 20.394 12.419 20.587L15.146 23.279C15.618 23.745 16.24 24 16.902 24H16.937C17.611 23.99 18.24 23.718 18.707 23.23L23.941 17.775C24.132 17.576 24.127 17.259 23.926 17.069Z" fill="black"/>
</svg>
