<svg width="101" height="59" viewBox="0 0 101 59" fill="none" xmlns="http://www.w3.org/2000/svg">
<path d="M21.8394 56.7744V56.1624L26.0784 50.9064L26.1774 51.2574H21.9024V50.4744H26.9874V51.0864L22.7664 56.3424L22.6584 55.9914H27.1044V56.7744H21.8394ZM30.124 56.8284C29.644 56.8284 29.218 56.7234 28.846 56.5134C28.474 56.3034 28.18 56.0154 27.964 55.6494C27.748 55.2774 27.64 54.8574 27.64 54.3894C27.64 53.9154 27.748 53.4954 27.964 53.1294C28.18 52.7634 28.474 52.4784 28.846 52.2744C29.218 52.0644 29.644 51.9594 30.124 51.9594C30.598 51.9594 31.021 52.0644 31.393 52.2744C31.771 52.4784 32.065 52.7634 32.275 53.1294C32.491 53.4894 32.599 53.9094 32.599 54.3894C32.599 54.8634 32.491 55.2834 32.275 55.6494C32.065 56.0154 31.771 56.3034 31.393 56.5134C31.021 56.7234 30.598 56.8284 30.124 56.8284ZM30.124 56.0724C30.43 56.0724 30.703 56.0034 30.943 55.8654C31.189 55.7274 31.381 55.5324 31.519 55.2804C31.657 55.0224 31.726 54.7254 31.726 54.3894C31.726 54.0474 31.657 53.7534 31.519 53.5074C31.381 53.2554 31.189 53.0604 30.943 52.9224C30.703 52.7844 30.43 52.7154 30.124 52.7154C29.818 52.7154 29.545 52.7844 29.305 52.9224C29.065 53.0604 28.873 53.2554 28.729 53.5074C28.585 53.7534 28.513 54.0474 28.513 54.3894C28.513 54.7254 28.585 55.0224 28.729 55.2804C28.873 55.5324 29.065 55.7274 29.305 55.8654C29.545 56.0034 29.818 56.0724 30.124 56.0724ZM36.3409 51.9594C36.7309 51.9594 37.0729 52.0344 37.3669 52.1844C37.6669 52.3344 37.9009 52.5624 38.0689 52.8684C38.2369 53.1744 38.3209 53.5614 38.3209 54.0294V56.7744H37.4569V54.1284C37.4569 53.6664 37.3429 53.3184 37.1149 53.0844C36.8929 52.8504 36.5779 52.7334 36.1699 52.7334C35.8639 52.7334 35.5969 52.7934 35.3689 52.9134C35.1409 53.0334 34.9639 53.2104 34.8379 53.4444C34.7179 53.6784 34.6579 53.9694 34.6579 54.3174V56.7744H33.7939V52.0044H34.6219V53.2914L34.4869 52.9494C34.6429 52.6374 34.8829 52.3944 35.2069 52.2204C35.5309 52.0464 35.9089 51.9594 36.3409 51.9594ZM39.9198 56.7744V52.0044H40.7838V56.7744H39.9198ZM40.3518 51.0864C40.1838 51.0864 40.0428 51.0324 39.9288 50.9244C39.8208 50.8164 39.7668 50.6844 39.7668 50.5284C39.7668 50.3664 39.8208 50.2314 39.9288 50.1234C40.0428 50.0154 40.1838 49.9614 40.3518 49.9614C40.5198 49.9614 40.6578 50.0154 40.7658 50.1234C40.8798 50.2254 40.9368 50.3544 40.9368 50.5104C40.9368 50.6724 40.8828 50.8104 40.7748 50.9244C40.6668 51.0324 40.5258 51.0864 40.3518 51.0864ZM41.7405 56.7744L43.7925 54.1104L43.7835 54.5514L41.8305 52.0044H42.7935L44.2875 53.9664H43.9185L45.4125 52.0044H46.3575L44.3775 54.5694L44.3865 54.1104L46.4565 56.7744H45.4755L43.9005 54.6864L44.2515 54.7404L42.7035 56.7744H41.7405ZM49.9423 56.7744V50.4744H52.3993C52.9513 50.4744 53.4223 50.5614 53.8123 50.7354C54.2023 50.9094 54.5023 51.1614 54.7123 51.4914C54.9223 51.8214 55.0273 52.2144 55.0273 52.6704C55.0273 53.1264 54.9223 53.5194 54.7123 53.8494C54.5023 54.1734 54.2023 54.4224 53.8123 54.5964C53.4223 54.7704 52.9513 54.8574 52.3993 54.8574H50.4373L50.8423 54.4434V56.7744H49.9423ZM54.1543 56.7744L52.5523 54.4884H53.5153L55.1353 56.7744H54.1543ZM50.8423 54.5334L50.4373 54.0924H52.3723C52.9483 54.0924 53.3833 53.9694 53.6773 53.7234C53.9773 53.4714 54.1273 53.1204 54.1273 52.6704C54.1273 52.2204 53.9773 51.8724 53.6773 51.6264C53.3833 51.3804 52.9483 51.2574 52.3723 51.2574H50.4373L50.8423 50.8074V54.5334ZM58.4794 56.8284C57.9694 56.8284 57.5194 56.7234 57.1294 56.5134C56.7454 56.3034 56.4454 56.0154 56.2294 55.6494C56.0194 55.2834 55.9144 54.8634 55.9144 54.3894C55.9144 53.9154 56.0164 53.4954 56.2204 53.1294C56.4304 52.7634 56.7154 52.4784 57.0754 52.2744C57.4414 52.0644 57.8524 51.9594 58.3084 51.9594C58.7704 51.9594 59.1784 52.0614 59.5324 52.2654C59.8864 52.4694 60.1624 52.7574 60.3604 53.1294C60.5644 53.4954 60.6664 53.9244 60.6664 54.4164C60.6664 54.4524 60.6634 54.4944 60.6574 54.5424C60.6574 54.5904 60.6544 54.6354 60.6484 54.6774H56.5894V54.0564H60.1984L59.8474 54.2724C59.8534 53.9664 59.7904 53.6934 59.6584 53.4534C59.5264 53.2134 59.3434 53.0274 59.1094 52.8954C58.8814 52.7574 58.6144 52.6884 58.3084 52.6884C58.0084 52.6884 57.7414 52.7574 57.5074 52.8954C57.2734 53.0274 57.0904 53.2164 56.9584 53.4624C56.8264 53.7024 56.7604 53.9784 56.7604 54.2904V54.4344C56.7604 54.7524 56.8324 55.0374 56.9764 55.2894C57.1264 55.5354 57.3334 55.7274 57.5974 55.8654C57.8614 56.0034 58.1644 56.0724 58.5064 56.0724C58.7884 56.0724 59.0434 56.0244 59.2714 55.9284C59.5054 55.8324 59.7094 55.6884 59.8834 55.4964L60.3604 56.0544C60.1444 56.3064 59.8744 56.4984 59.5504 56.6304C59.2324 56.7624 58.8754 56.8284 58.4794 56.8284ZM64.6953 56.7744V55.7664L64.6503 55.5774V53.8584C64.6503 53.4924 64.5423 53.2104 64.3263 53.0124C64.1163 52.8084 63.7983 52.7064 63.3723 52.7064C63.0903 52.7064 62.8143 52.7544 62.5443 52.8504C62.2743 52.9404 62.0463 53.0634 61.8603 53.2194L61.5003 52.5714C61.7463 52.3734 62.0403 52.2234 62.3823 52.1214C62.7303 52.0134 63.0933 51.9594 63.4713 51.9594C64.1253 51.9594 64.6293 52.1184 64.9833 52.4364C65.3373 52.7544 65.5143 53.2404 65.5143 53.8944V56.7744H64.6953ZM63.1293 56.8284C62.7753 56.8284 62.4633 56.7684 62.1933 56.6484C61.9293 56.5284 61.7253 56.3634 61.5813 56.1534C61.4373 55.9374 61.3653 55.6944 61.3653 55.4244C61.3653 55.1664 61.4253 54.9324 61.5453 54.7224C61.6713 54.5124 61.8723 54.3444 62.1483 54.2184C62.4303 54.0924 62.8083 54.0294 63.2823 54.0294H64.7943V54.6504H63.3183C62.8863 54.6504 62.5953 54.7224 62.4453 54.8664C62.2953 55.0104 62.2203 55.1844 62.2203 55.3884C62.2203 55.6224 62.3133 55.8114 62.4993 55.9554C62.6853 56.0934 62.9433 56.1624 63.2733 56.1624C63.5973 56.1624 63.8793 56.0904 64.1193 55.9464C64.3653 55.8024 64.5423 55.5924 64.6503 55.3164L64.8213 55.9104C64.7073 56.1924 64.5063 56.4174 64.2183 56.5854C63.9303 56.7474 63.5673 56.8284 63.1293 56.8284ZM67.1132 56.7744V50.0964H67.9772V56.7744H67.1132ZM71.3879 56.8284C70.9079 56.8284 70.5359 56.6994 70.2719 56.4414C70.0079 56.1834 69.8759 55.8144 69.8759 55.3344V50.9604H70.7399V55.2984C70.7399 55.5564 70.8029 55.7544 70.9289 55.8924C71.0609 56.0304 71.2469 56.0994 71.4869 56.0994C71.7569 56.0994 71.9819 56.0244 72.1619 55.8744L72.4319 56.4954C72.2999 56.6094 72.1409 56.6934 71.9549 56.7474C71.7749 56.8014 71.5859 56.8284 71.3879 56.8284ZM69.0659 52.7154V52.0044H72.1079V52.7154H69.0659ZM73.5956 58.5744C73.3676 58.5744 73.1456 58.5354 72.9296 58.4574C72.7136 58.3854 72.5276 58.2774 72.3716 58.1334L72.7406 57.4854C72.8606 57.5994 72.9926 57.6864 73.1366 57.7464C73.2806 57.8064 73.4336 57.8364 73.5956 57.8364C73.8056 57.8364 73.9796 57.7824 74.1176 57.6744C74.2556 57.5664 74.3846 57.3744 74.5046 57.0984L74.8016 56.4414L74.8916 56.3334L76.7636 52.0044H77.6096L75.2966 57.2514C75.1586 57.5874 75.0026 57.8514 74.8286 58.0434C74.6606 58.2354 74.4746 58.3704 74.2706 58.4484C74.0666 58.5324 73.8416 58.5744 73.5956 58.5744ZM74.7296 56.9274L72.5516 52.0044H73.4516L75.3056 56.2524L74.7296 56.9274Z" fill="#0F2A44"/>
<path d="M22.7212 21.2056V44.9834L25.2532 44.4491V23.0758L49.3069 5.17562L72.6011 22.8086V44.4491L75.6395 44.9834V21.2056L49.3069 0.633789L22.7212 21.2056Z" fill="#24364E" stroke="#24364E"/>
<path d="M29.2089 25.3574V43.1992L34.0427 42.4346V27.9062L49.562 16.6914L64.5725 27.3965V42.4346L69.4064 43.1992V25.3574L49.562 10.3193L29.2089 25.3574Z" fill="#24364E" stroke="#24364E"/>
<path d="M38.6222 31.2695V41.6948L37.3501 41.9372V30.2997L49.562 22.2988L61.2651 30.5421V42.1797L59.7386 41.6948V31.2695L49.562 24.2384L38.6222 31.2695Z" fill="#24364E" stroke="#24364E"/>
<path d="M0.459961 53.9034C52.615 26.8856 100.445 53.9035 100.445 53.9035" stroke="#0F2A44" stroke-width="2"/>
</svg>
