<svg width="61" height="58" viewBox="0 0 61 58" fill="none" xmlns="http://www.w3.org/2000/svg">
<rect width="61" height="58" rx="8" fill="#FFE8B4"/>
<g clip-path="url(#clip0_191_357)">
<path d="M30.5 18C24.435 18 19.5 22.935 19.5 29C19.5 34.91 24.122 39.737 30.021 39.989C30.297 40.002 30.511 40.234 30.499 40.51C30.488 40.779 30.266 40.989 30 40.989H29.978C23.541 40.714 18.499 35.447 18.499 29C18.5 22.383 23.883 17 30.5 17C37.117 17 42.5 22.383 42.5 29C42.5 29.881 42.404 30.759 42.216 31.608C42.156 31.878 41.892 32.047 41.619 31.988C41.349 31.928 41.18 31.661 41.239 31.391C41.412 30.613 41.5 29.808 41.5 28.999C41.5 22.934 36.565 18 30.5 18ZM30 23.023C29.724 23.023 29.5 23.247 29.5 23.523V28.722L25.735 31.076C25.501 31.222 25.43 31.531 25.576 31.764C25.671 31.916 25.834 31.999 26 31.999C26.09 31.999 26.182 31.975 26.265 31.923L30.265 29.423C30.411 29.332 30.5 29.172 30.5 28.999V23.522C30.5 23.246 30.276 23.023 30 23.023ZM42.426 34.069C42.227 33.876 41.909 33.883 41.72 34.084L36.486 39.538C36.206 39.83 35.828 39.994 35.424 40H35.403C35.007 40 34.632 39.847 34.35 39.568L31.622 36.876C31.425 36.682 31.109 36.684 30.914 36.88C30.72 37.077 30.722 37.394 30.919 37.587L33.646 40.279C34.118 40.745 34.74 41 35.402 41H35.437C36.111 40.99 36.74 40.718 37.207 40.23L42.441 34.775C42.632 34.576 42.627 34.259 42.426 34.069Z" fill="black"/>
</g>
<defs>
<clipPath id="clip0_191_357">
<rect width="24" height="24" fill="white" transform="translate(18.5 17)"/>
</clipPath>
</defs>
</svg>
