<svg width="32" height="32" viewBox="0 0 32 32" fill="none" xmlns="http://www.w3.org/2000/svg">
<path d="M0 8C0 3.58172 3.58172 0 8 0H24C28.4183 0 32 3.58172 32 8V24C32 28.4183 28.4183 32 24 32H8C3.58172 32 0 28.4183 0 24V8Z" fill="#F6F7F9"/>
<path d="M23.875 9H21.1625C20.9594 8.01249 20.4221 7.12518 19.6411 6.48763C18.8601 5.85008 17.8832 5.50127 16.875 5.5L15.125 5.5C14.1168 5.50127 13.1399 5.85008 12.3589 6.48763C11.5779 7.12518 11.0406 8.01249 10.8375 9H8.125C7.89294 9 7.67038 9.09219 7.50628 9.25628C7.34219 9.42038 7.25 9.64294 7.25 9.875C7.25 10.1071 7.34219 10.3296 7.50628 10.4937C7.67038 10.6578 7.89294 10.75 8.125 10.75H9V22.125C9.00139 23.2849 9.46277 24.3969 10.2829 25.2171C11.1031 26.0372 12.2151 26.4986 13.375 26.5H18.625C19.7849 26.4986 20.8969 26.0372 21.7171 25.2171C22.5372 24.3969 22.9986 23.2849 23 22.125V10.75H23.875C24.1071 10.75 24.3296 10.6578 24.4937 10.4937C24.6578 10.3296 24.75 10.1071 24.75 9.875C24.75 9.64294 24.6578 9.42038 24.4937 9.25628C24.3296 9.09219 24.1071 9 23.875 9ZM15.125 7.25H16.875C17.4177 7.25066 17.947 7.4192 18.3902 7.73251C18.8333 8.04582 19.1687 8.48856 19.3504 9H12.6496C12.8313 8.48856 13.1667 8.04582 13.6098 7.73251C14.053 7.4192 14.5823 7.25066 15.125 7.25ZM21.25 22.125C21.25 22.8212 20.9734 23.4889 20.4812 23.9812C19.9889 24.4734 19.3212 24.75 18.625 24.75H13.375C12.6788 24.75 12.0111 24.4734 11.5188 23.9812C11.0266 23.4889 10.75 22.8212 10.75 22.125V10.75H21.25V22.125Z" fill="#DF0C3D"/>
<path d="M14.25 21.25C14.4821 21.25 14.7046 21.1578 14.8687 20.9937C15.0328 20.8296 15.125 20.6071 15.125 20.375V15.125C15.125 14.8929 15.0328 14.6704 14.8687 14.5063C14.7046 14.3422 14.4821 14.25 14.25 14.25C14.0179 14.25 13.7954 14.3422 13.6313 14.5063C13.4672 14.6704 13.375 14.8929 13.375 15.125V20.375C13.375 20.6071 13.4672 20.8296 13.6313 20.9937C13.7954 21.1578 14.0179 21.25 14.25 21.25Z" fill="#DF0C3D"/>
<path d="M17.75 21.25C17.9821 21.25 18.2046 21.1578 18.3687 20.9937C18.5328 20.8296 18.625 20.6071 18.625 20.375V15.125C18.625 14.8929 18.5328 14.6704 18.3687 14.5063C18.2046 14.3422 17.9821 14.25 17.75 14.25C17.5179 14.25 17.2954 14.3422 17.1313 14.5063C16.9672 14.6704 16.875 14.8929 16.875 15.125V20.375C16.875 20.6071 16.9672 20.8296 17.1313 20.9937C17.2954 21.1578 17.5179 21.25 17.75 21.25Z" fill="#DF0C3D"/>
</svg>
