<svg width="24" height="24" viewBox="0 0 24 24" fill="none" xmlns="http://www.w3.org/2000/svg">
<g clip-path="url(#clip0_1028_596)">
<path d="M22.2298 22.2696L23.2098 21.1495C24.2298 20.1295 24.2798 18.3995 23.1598 17.2995L20.7098 15.4295C19.6598 14.3795 17.9498 14.3795 16.9098 15.4295L15.3798 16.9195C11.5798 15.2996 8.57981 12.3095 7.07981 8.62955L8.5698 7.09955C9.0798 6.58955 9.3598 5.91955 9.3598 5.19955C9.3598 4.47955 9.0798 3.80955 8.6098 3.34955L6.64981 0.809549C5.59981 -0.240451 3.88981 -0.240451 2.86981 0.789549L1.69981 1.80955C0.599806 2.90955 -0.0101948 4.38955 -0.0101948 5.99955C-0.0101948 13.7495 10.2698 24.0196 18.0098 24.0196C19.6098 24.0196 21.0998 23.4096 22.2198 22.2896L22.2298 22.2696ZM0.999805 5.97955C0.999805 4.63955 1.49981 3.40955 2.3898 2.51955L3.56981 1.49955C4.2298 0.839549 5.2998 0.839549 5.91981 1.44955L7.8798 3.98955C8.1998 4.30955 8.3798 4.72955 8.3798 5.18955C8.3798 5.64955 8.1998 6.06955 7.8798 6.38955L6.14981 8.15955C6.00981 8.29955 5.96981 8.49955 6.03981 8.68955C7.62981 12.8595 11.0198 16.2495 15.3198 17.9795C15.4998 18.0495 15.7098 18.0096 15.8598 17.8696L17.6298 16.1395C18.2898 15.4795 19.3598 15.4796 20.0698 16.1796L22.5198 18.0495C23.1798 18.7095 23.1798 19.7795 22.4998 20.4695L21.5198 21.5896C20.6098 22.4995 19.3798 22.9995 18.0398 22.9995C10.8798 22.9995 1.01981 13.1395 1.01981 5.97955H0.999805Z" fill="#A237FF"/>
</g>
<defs>
<clipPath id="clip0_1028_596">
<rect width="24" height="24" fill="white" transform="matrix(0 1 -1 0 24 0)"/>
</clipPath>
</defs>
</svg>
