<svg width="12" height="7" viewBox="0 0 12 7" fill="none" xmlns="http://www.w3.org/2000/svg">
<path d="M0.329621 1.92159L3.76912 5.36034C4.26909 5.83797 4.93393 6.10449 5.62537 6.10449C6.31682 6.10449 6.98165 5.83797 7.48162 5.36034L10.9211 1.92159C11.1322 1.71055 11.2507 1.42431 11.2507 1.12584C11.2507 0.827381 11.1322 0.541141 10.9211 0.330095C10.7101 0.119049 10.4238 0.00048399 10.1254 0.00048399C9.82691 0.00048399 9.54067 0.119049 9.32962 0.330095L5.89012 3.76959C5.8198 3.8399 5.72443 3.87939 5.625 3.87939C5.52556 3.87939 5.43019 3.8399 5.35987 3.76959L1.92112 0.330095C1.71008 0.119049 1.42384 0.00048399 1.12537 0.00048399C0.826908 0.00048399 0.540668 0.119049 0.329621 0.330095C0.118575 0.541141 1.14441e-05 0.827381 1.14441e-05 1.12584C1.14441e-05 1.42431 0.118575 1.71055 0.329621 1.92159Z" fill="black"/>
</svg>
