<svg width="12" height="7" viewBox="0 0 12 7" fill="none" xmlns="http://www.w3.org/2000/svg">
<path d="M10.9211 4.1829L7.48161 0.744147C6.98164 0.266524 6.3168 0 5.62536 0C4.93392 0 4.26908 0.266524 3.76911 0.744147L0.329611 4.1829C0.118565 4.39394 0 4.68018 0 4.97865C0 5.27711 0.118565 5.56335 0.329611 5.7744C0.540657 5.98544 0.826896 6.10401 1.12536 6.10401C1.42382 6.10401 1.71006 5.98544 1.92111 5.7744L5.36061 2.3349C5.43093 2.2646 5.5263 2.2251 5.62574 2.2251C5.72517 2.2251 5.82054 2.2646 5.89086 2.3349L9.32961 5.7744C9.54066 5.98544 9.8269 6.10401 10.1254 6.10401C10.4238 6.10401 10.7101 5.98544 10.9211 5.7744C11.1322 5.56335 11.2507 5.27711 11.2507 4.97865C11.2507 4.68018 11.1322 4.39394 10.9211 4.1829Z" fill="black"/>
</svg>
