<svg width="18" height="21" viewBox="0 0 18 21" fill="none" xmlns="http://www.w3.org/2000/svg">
<path d="M16.625 3.5H13.9125C13.7094 2.51249 13.1721 1.62518 12.3911 0.987628C11.6101 0.350079 10.6332 0.00127271 9.625 0L7.875 0C6.86682 0.00127271 5.8899 0.350079 5.10891 0.987628C4.32791 1.62518 3.79058 2.51249 3.5875 3.5H0.875C0.642936 3.5 0.420376 3.59219 0.256282 3.75628C0.0921872 3.92038 0 4.14294 0 4.375C0 4.60706 0.0921872 4.82962 0.256282 4.99372C0.420376 5.15781 0.642936 5.25 0.875 5.25H1.75V16.625C1.75139 17.7849 2.21277 18.8969 3.03294 19.7171C3.85311 20.5372 4.96511 20.9986 6.125 21H11.375C12.5349 20.9986 13.6469 20.5372 14.4671 19.7171C15.2872 18.8969 15.7486 17.7849 15.75 16.625V5.25H16.625C16.8571 5.25 17.0796 5.15781 17.2437 4.99372C17.4078 4.82962 17.5 4.60706 17.5 4.375C17.5 4.14294 17.4078 3.92038 17.2437 3.75628C17.0796 3.59219 16.8571 3.5 16.625 3.5ZM7.875 1.75H9.625C10.1677 1.75066 10.697 1.9192 11.1402 2.23251C11.5833 2.54582 11.9187 2.98856 12.1004 3.5H5.39963C5.58126 2.98856 5.91666 2.54582 6.35984 2.23251C6.80301 1.9192 7.33226 1.75066 7.875 1.75ZM14 16.625C14 17.3212 13.7234 17.9889 13.2312 18.4812C12.7389 18.9734 12.0712 19.25 11.375 19.25H6.125C5.42881 19.25 4.76113 18.9734 4.26885 18.4812C3.77656 17.9889 3.5 17.3212 3.5 16.625V5.25H14V16.625Z" fill="white"/>
</svg>
