<svg width="32" height="32" viewBox="0 0 32 32" fill="none" xmlns="http://www.w3.org/2000/svg">
<path d="M0 8C0 3.58172 3.58172 0 8 0H24C28.4183 0 32 3.58172 32 8V24C32 28.4183 28.4183 32 24 32H8C3.58172 32 0 28.4183 0 24V8Z" fill="#F6F7F9"/>
<g clip-path="url(#clip0_911_2198)">
<path d="M8.5 4.99998H14.015C14.349 4.99998 14.678 5.02998 15 5.08798V10.5C15 11.878 16.122 13 17.5 13H22.911C22.944 13.178 22.968 13.359 22.982 13.541C23.004 13.816 23.256 14.02 23.521 13.999C23.796 13.977 24.001 13.735 23.979 13.46C23.854 11.924 23.186 10.479 22.096 9.38998L18.611 5.90498C17.383 4.67698 15.751 4.00098 14.015 4.00098H8.5C6.019 3.99998 4 6.01898 4 8.49998V23.5C4 25.981 6.019 28 8.5 28H12.5C12.776 28 13 27.776 13 27.5C13 27.224 12.776 27 12.5 27H8.5C6.57 27 5 25.43 5 23.5V8.49998C5 6.56998 6.57 4.99998 8.5 4.99998ZM21.389 10.096C21.934 10.641 22.354 11.291 22.629 12H17.5C16.673 12 16 11.327 16 10.5V5.36798C16.706 5.64098 17.353 6.05998 17.904 6.61098L21.389 10.096ZM27.267 15.732C26.324 14.788 24.675 14.788 23.732 15.732L16.025 23.439C15.364 24.1 15 24.979 15 25.914V27.5C15 27.776 15.224 28 15.5 28H17.086C18.021 28 18.9 27.636 19.561 26.975L27.268 19.268C27.74 18.796 28 18.168 28 17.5C28 16.832 27.739 16.204 27.267 15.732ZM26.56 18.56L18.853 26.267C18.381 26.739 17.753 26.999 17.085 26.999H15.999V25.913C15.999 25.245 16.259 24.618 16.731 24.145L24.438 16.438C25.004 15.872 25.993 15.872 26.559 16.438C26.842 16.721 26.998 17.098 26.998 17.499C26.998 17.9 26.843 18.276 26.56 18.56Z" fill="black"/>
</g>
<defs>
<clipPath id="clip0_911_2198">
<rect width="24" height="24" fill="white" transform="translate(4 4)"/>
</clipPath>
</defs>
</svg>
