<svg width="47" height="43" viewBox="0 0 47 43" fill="none" xmlns="http://www.w3.org/2000/svg">
<path d="M46.9174 25.2459L44.4348 19.0387C44.2593 18.5998 43.8343 18.3121 43.3617 18.3121H27.1381V14.7261H38.3963C39.0347 14.7261 39.552 14.2088 39.552 13.5704V1.1557C39.552 0.517291 39.0347 0 38.3963 0H3.63843C3.16598 0 2.74099 0.287692 2.56532 0.72655L0.0825715 6.93374C-0.0276052 7.20926 -0.0276052 7.51652 0.0825715 7.79204L2.56532 13.9994C2.74084 14.4382 3.16582 14.7259 3.63843 14.7259H17.3788V18.312H8.60362C7.96522 18.312 7.44792 18.8293 7.44792 19.4677V31.8822C7.44792 32.5206 7.96522 33.0379 8.60362 33.0379H17.3788V40.883C17.3788 41.5214 17.8961 42.0387 18.5345 42.0387H25.9824C26.6208 42.0387 27.1381 41.5214 27.1381 40.883V33.0379H43.3615C43.834 33.0379 44.2591 32.7502 44.4346 32.3114L46.9172 26.104C47.0276 25.8287 47.0276 25.5214 46.9174 25.2459ZM2.40044 7.36289L4.42091 2.3114H37.2405V12.4145H4.42091L2.40044 7.36289ZM19.6902 14.7259H24.8267V18.312H19.6902V14.7259ZM24.8267 39.7274H19.6902V33.0381H24.8267V39.7274ZM42.579 30.7267H9.75932V20.6235H42.579L44.5995 25.675L42.579 30.7267Z" fill="#A237FF"/>
<path d="M13.5696 6.16943C13.2647 6.16943 12.9671 6.29271 12.7516 6.50844C12.5372 6.72402 12.4139 7.02157 12.4139 7.32513C12.4139 7.63008 12.5372 7.92764 12.7516 8.14337C12.9671 8.3591 13.2647 8.48237 13.5696 8.48237C13.8732 8.48237 14.1706 8.3591 14.3863 8.14337C14.6021 7.92779 14.7253 7.63024 14.7253 7.32513C14.7253 7.02157 14.6021 6.72417 14.3863 6.50844C14.1708 6.29271 13.8732 6.16943 13.5696 6.16943Z" fill="#A237FF"/>
<path d="M21.0171 6.16943C20.7135 6.16943 20.4161 6.29271 20.2004 6.50844C19.9847 6.72402 19.8614 7.02157 19.8614 7.32513C19.8614 7.63008 19.9847 7.92764 20.2004 8.14337C20.416 8.3591 20.7135 8.48237 21.0171 8.48237C21.3207 8.48237 21.6196 8.3591 21.8355 8.14337C22.0497 7.92779 22.1728 7.6287 22.1728 7.32513C22.1728 7.02157 22.0495 6.72417 21.8355 6.50844C21.6196 6.29271 21.3205 6.16943 21.0171 6.16943Z" fill="#A237FF"/>
<path d="M28.4658 6.16943C28.1607 6.16943 27.8633 6.29271 27.6476 6.50844C27.4332 6.72402 27.3101 7.02157 27.3101 7.32513C27.3101 7.63008 27.4334 7.92764 27.6476 8.14337C27.8632 8.3591 28.1623 8.48237 28.4658 8.48237C28.7695 8.48237 29.0668 8.3591 29.2825 8.14337C29.4982 7.92779 29.6215 7.6287 29.6215 7.32513C29.6215 7.02157 29.4982 6.72417 29.2825 6.50844C29.0669 6.29271 28.7695 6.16943 28.4658 6.16943Z" fill="#A237FF"/>
<path d="M21.0171 24.5189C20.7135 24.5189 20.4146 24.6422 20.2004 24.8579C19.9847 25.0735 19.8614 25.3711 19.8614 25.6746C19.8614 25.9796 19.9847 26.2771 20.2004 26.4927C20.416 26.707 20.7135 26.8303 21.0171 26.8303C21.3222 26.8303 21.6196 26.707 21.8355 26.4927C22.0497 26.2771 22.1728 25.9796 22.1728 25.6746C22.1728 25.3711 22.0495 25.0737 21.8355 24.8579C21.6196 24.6422 21.3222 24.5189 21.0171 24.5189Z" fill="#A237FF"/>
<path d="M28.4658 24.5189C28.1607 24.5189 27.8633 24.6422 27.6476 24.8579C27.4332 25.0735 27.3101 25.3711 27.3101 25.6746C27.3101 25.9796 27.4334 26.2771 27.6476 26.4927C27.8632 26.707 28.1607 26.8303 28.4658 26.8303C28.7695 26.8303 29.0668 26.707 29.2825 26.4927C29.4982 26.2771 29.6215 25.9796 29.6215 25.6746C29.6215 25.3711 29.4982 25.0737 29.2825 24.8579C29.0685 24.6422 28.7695 24.5189 28.4658 24.5189Z" fill="#A237FF"/>
<path d="M35.9131 24.5189C35.6082 24.5189 35.3106 24.6422 35.0965 24.8579C34.8807 25.0735 34.7574 25.3711 34.7574 25.6746C34.7574 25.9796 34.8807 26.2771 35.0965 26.4927C35.3106 26.707 35.6096 26.8303 35.9131 26.8303C36.2167 26.8303 36.5156 26.707 36.7298 26.4927C36.9456 26.2771 37.0688 25.9796 37.0688 25.6746C37.0688 25.3711 36.9456 25.0737 36.7298 24.8579C36.5158 24.6422 36.2184 24.5189 35.9131 24.5189Z" fill="#A237FF"/>
</svg>
