<svg width="24" height="24" viewBox="0 0 24 24" fill="none" xmlns="http://www.w3.org/2000/svg">
<g clip-path="url(#clip0_708_634)">
<path d="M23.3116 9.73325C22.4726 8.48125 21.1316 6.80725 19.2656 5.44125L22.8536 1.85325C23.0486 1.65825 23.0486 1.34125 22.8536 1.14625C22.6586 0.95125 22.3416 0.95125 22.1466 1.14625L18.4216 4.87125C16.6786 3.78225 14.5446 2.99925 12.0006 2.99925C6.08159 3.00025 2.37259 7.21925 0.687594 9.73325C-0.234406 11.1102 -0.234406 12.8892 0.687594 14.2662C1.52659 15.5182 2.86759 17.1923 4.73359 18.5583L1.14559 22.1462C0.950594 22.3412 0.950594 22.6583 1.14559 22.8533C1.24359 22.9513 1.37159 22.9993 1.49959 22.9993C1.62759 22.9993 1.75559 22.9503 1.85359 22.8533L5.57859 19.1283C7.32159 20.2173 9.45559 21.0002 11.9996 21.0002C17.9176 21.0002 21.6266 16.7812 23.3116 14.2673C24.2336 12.8903 24.2336 11.1112 23.3116 9.73425V9.73325ZM1.51959 13.7102C0.823594 12.6712 0.823594 11.3293 1.51959 10.2902C3.09259 7.94125 6.54659 4.00025 11.9996 4.00025C14.2296 4.00025 16.1196 4.66425 17.6886 5.60425L15.1456 8.14725C14.2836 7.44225 13.1976 7.00125 11.9996 7.00125C9.24259 7.00125 6.99959 9.24425 6.99959 12.0013C6.99959 13.1993 7.44059 14.2852 8.14559 15.1473L5.45359 17.8393C3.63559 16.5423 2.32859 14.9172 1.51959 13.7102ZM8.85359 14.4402C8.32659 13.7632 8.00059 12.9233 8.00059 12.0002C8.00059 9.79425 9.79459 8.00025 12.0006 8.00025C12.9226 8.00025 13.7626 8.32725 14.4406 8.85325L8.85359 14.4402ZM15.1476 9.56025C15.6746 10.2373 16.0006 11.0772 16.0006 12.0002C16.0006 14.2063 14.2066 16.0002 12.0006 16.0002C11.0786 16.0002 10.2386 15.6733 9.56059 15.1473L15.1476 9.56025ZM22.4816 13.7102C20.9086 16.0592 17.4546 20.0002 12.0016 20.0002C9.77159 20.0002 7.88159 19.3363 6.31259 18.3962L8.85559 15.8532C9.71759 16.5582 10.8036 16.9993 12.0016 16.9993C14.7586 16.9993 17.0016 14.7562 17.0016 11.9992C17.0016 10.8012 16.5606 9.71525 15.8556 8.85325L18.5476 6.16125C20.3656 7.45825 21.6736 9.08325 22.4826 10.2902C23.1786 11.3293 23.1776 12.6712 22.4816 13.7102Z" fill="black"/>
</g>
<defs>
<clipPath id="clip0_708_634">
<rect width="24" height="24" fill="white"/>
</clipPath>
</defs>
</svg>
