<svg width="24" height="18" viewBox="0 0 24 18" fill="none" xmlns="http://www.w3.org/2000/svg">
<path d="M23.3121 6.733C21.6281 4.218 17.9181 0 12.0001 0C6.08208 0 2.37308 4.219 0.688082 6.733C-0.233918 8.11 -0.233918 9.889 0.688082 11.266C2.37208 13.781 6.08208 17.999 12.0001 17.999C17.9181 17.999 21.6271 13.78 23.3121 11.266C24.2341 9.889 24.2341 8.11 23.3121 6.733ZM22.4811 10.71C20.9081 13.059 17.4541 17 12.0011 17C6.54808 17 3.09308 13.059 1.52008 10.71C0.824082 9.671 0.824082 8.329 1.52008 7.29C3.09308 4.941 6.54708 1 12.0001 1C17.4531 1 20.9071 4.941 22.4801 7.29C23.1761 8.329 23.1761 9.671 22.4801 10.71H22.4811ZM12.0001 4C9.24308 4 7.00008 6.243 7.00008 9C7.00008 11.757 9.24308 14 12.0001 14C14.7571 14 17.0001 11.757 17.0001 9C17.0001 6.243 14.7571 4 12.0001 4ZM12.0001 13C9.79408 13 8.00008 11.206 8.00008 9C8.00008 6.794 9.79408 5 12.0001 5C14.2061 5 16.0001 6.794 16.0001 9C16.0001 11.206 14.2061 13 12.0001 13Z" fill="black"/>
</svg>
