<svg width="27" height="27" viewBox="0 0 27 27" fill="none" xmlns="http://www.w3.org/2000/svg">
<path d="M18.5625 2.95312H8.4375C6.98295 2.95313 5.58798 3.53094 4.55946 4.55946C3.53094 5.58798 2.95313 6.98295 2.95312 8.4375V18.5625C2.95313 20.017 3.53094 21.412 4.55946 22.4405C5.58798 23.4691 6.98295 24.0469 8.4375 24.0469H18.5625C20.017 24.0469 21.412 23.4691 22.4405 22.4405C23.4691 21.412 24.0469 20.017 24.0469 18.5625V8.4375C24.0469 6.98295 23.4691 5.58798 22.4405 4.55946C21.412 3.53094 20.017 2.95313 18.5625 2.95312ZM13.9219 23.2031V16.0312C13.9219 15.9194 13.8774 15.8121 13.7983 15.7329C13.7192 15.6538 13.6119 15.6094 13.5 15.6094H11.3906V13.0781H13.5C13.6119 13.0781 13.7192 13.0337 13.7983 12.9546C13.8774 12.8754 13.9219 12.7681 13.9219 12.6562V9.28125C13.9219 8.72181 14.1441 8.18528 14.5397 7.7897C14.9353 7.39411 15.4718 7.17188 16.0312 7.17188H19.4062V9.70312H17.7188C17.3831 9.70312 17.0612 9.83647 16.8238 10.0738C16.5865 10.3112 16.4531 10.6331 16.4531 10.9688V12.6562C16.4531 12.7681 16.4976 12.8754 16.5767 12.9546C16.6558 13.0337 16.7631 13.0781 16.875 13.0781H19.4062V15.6094H16.875C16.7631 15.6094 16.6558 15.6538 16.5767 15.7329C16.4976 15.8121 16.4531 15.9194 16.4531 16.0312V23.2031H13.9219ZM23.2031 18.5625C23.2031 19.7933 22.7142 20.9736 21.8439 21.8439C20.9736 22.7142 19.7933 23.2031 18.5625 23.2031H17.2969V16.4531H19.8281C19.94 16.4531 20.0473 16.4087 20.1264 16.3296C20.2056 16.2504 20.25 16.1431 20.25 16.0312V12.6562C20.25 12.5444 20.2056 12.4371 20.1264 12.3579C20.0473 12.2788 19.94 12.2344 19.8281 12.2344H17.2969V10.9688C17.2969 10.8569 17.3413 10.7496 17.4204 10.6704C17.4996 10.5913 17.6069 10.5469 17.7188 10.5469H19.8281C19.94 10.5469 20.0473 10.5024 20.1264 10.4233C20.2056 10.3442 20.25 10.2369 20.25 10.125V6.75C20.25 6.63811 20.2056 6.53081 20.1264 6.45169C20.0473 6.37257 19.94 6.32812 19.8281 6.32812H16.0312C15.248 6.32812 14.4969 6.63926 13.9431 7.19308C13.3893 7.74689 13.0781 8.49803 13.0781 9.28125V12.2344H10.9688C10.8569 12.2344 10.7496 12.2788 10.6704 12.3579C10.5913 12.4371 10.5469 12.5444 10.5469 12.6562V16.0312C10.5469 16.1431 10.5913 16.2504 10.6704 16.3296C10.7496 16.4087 10.8569 16.4531 10.9688 16.4531H13.0781V23.2031H8.4375C7.20673 23.2031 6.02637 22.7142 5.15608 21.8439C4.2858 20.9736 3.79688 19.7933 3.79688 18.5625V8.4375C3.79688 7.20673 4.2858 6.02637 5.15608 5.15608C6.02637 4.2858 7.20673 3.79688 8.4375 3.79688H18.5625C19.7933 3.79688 20.9736 4.2858 21.8439 5.15608C22.7142 6.02637 23.2031 7.20673 23.2031 8.4375V18.5625Z" fill="black"/>
</svg>
