<svg width="24" height="24" viewBox="0 0 24 24" fill="none" xmlns="http://www.w3.org/2000/svg">
<g clip-path="url(#clip0_195_502)">
<path d="M6 14C8.206 14 10 12.206 10 10C10 7.794 8.206 6 6 6C3.794 6 2 7.794 2 10C2 12.206 3.794 14 6 14ZM6 7C7.654 7 9 8.346 9 10C9 11.654 7.654 13 6 13C4.346 13 3 11.654 3 10C3 8.346 4.346 7 6 7ZM12 22V23.5C12 23.776 11.776 24 11.5 24C11.224 24 11 23.776 11 23.5V22C11 19.243 8.757 17 6 17C3.243 17 1 19.243 1 22V23.5C1 23.776 0.776 24 0.5 24C0.224 24 0 23.776 0 23.5V22C0 18.691 2.691 16 6 16C9.309 16 12 18.691 12 22ZM20.5 4.5C20.5 5.439 19.981 6.291 19.146 6.723C18.608 7 18.5 7.226 18.5 7.5C18.5 7.776 18.276 8 18 8C17.724 8 17.5 7.776 17.5 7.5C17.5 6.556 18.177 6.097 18.687 5.834C19.189 5.575 19.5 5.064 19.5 4.5C19.5 3.673 18.827 3 18 3C17.173 3 16.5 3.673 16.5 4.5C16.5 4.776 16.276 5 16 5C15.724 5 15.5 4.776 15.5 4.5C15.5 3.122 16.622 2 18 2C19.378 2 20.5 3.122 20.5 4.5ZM19 10C19 10.552 18.552 11 18 11C17.448 11 17 10.552 17 10C17 9.448 17.448 9 18 9C18.552 9 19 9.448 19 10ZM24 2.5V8.5C24 9.878 22.878 11 21.5 11H20.5C20.224 11 20 10.776 20 10.5C20 10.224 20.224 10 20.5 10H21.5C22.327 10 23 9.327 23 8.5V2.5C23 2.099 22.844 1.723 22.561 1.439C22.278 1.156 21.901 1 21.501 1H14.5C13.673 1.002 13 1.675 13 2.502V11.861C13.012 11.99 13.123 12.043 13.23 11.974L15.195 10.465C15.415 10.297 15.729 10.34 15.896 10.557C16.064 10.776 16.023 11.09 15.804 11.258L13.839 12.767C13.49 13.035 13.029 13.078 12.638 12.886C12.245 12.692 12.001 12.3 12.001 11.862V2.502C12 1.124 13.121 0.002 14.5 0.001H21.5V0C22.167 0 22.795 0.26 23.267 0.732C23.739 1.204 24 1.832 24 2.5Z" fill="black"/>
</g>
<defs>
<clipPath id="clip0_195_502">
<rect width="24" height="24" fill="white"/>
</clipPath>
</defs>
</svg>
