<svg width="27" height="27" viewBox="0 0 27 27" fill="none" xmlns="http://www.w3.org/2000/svg">
<path d="M18.5625 24.0469H8.4375C6.98295 24.0469 5.58798 23.4691 4.55946 22.4405C3.53094 21.412 2.95313 20.017 2.95312 18.5625V8.4375C2.95313 6.98295 3.53094 5.58798 4.55946 4.55946C5.58798 3.53094 6.98295 2.95313 8.4375 2.95312H18.5625C20.017 2.95313 21.412 3.53094 22.4405 4.55946C23.4691 5.58798 24.0469 6.98295 24.0469 8.4375V18.5625C24.0469 20.017 23.4691 21.412 22.4405 22.4405C21.412 23.4691 20.017 24.0469 18.5625 24.0469ZM8.4375 3.79688C7.20673 3.79688 6.02637 4.2858 5.15608 5.15608C4.2858 6.02637 3.79688 7.20673 3.79688 8.4375V18.5625C3.79688 19.7933 4.2858 20.9736 5.15608 21.8439C6.02637 22.7142 7.20673 23.2031 8.4375 23.2031H18.5625C19.7933 23.2031 20.9736 22.7142 21.8439 21.8439C22.7142 20.9736 23.2031 19.7933 23.2031 18.5625V8.4375C23.2031 7.20673 22.7142 6.02637 21.8439 5.15608C20.9736 4.2858 19.7933 3.79688 18.5625 3.79688H8.4375Z" fill="black"/>
<path d="M13.5 18.4232C12.5263 18.4232 11.5744 18.1345 10.7648 17.5935C9.95515 17.0525 9.32412 16.2836 8.95149 15.384C8.57885 14.4844 8.48136 13.4945 8.67132 12.5395C8.86129 11.5844 9.33019 10.7072 10.0187 10.0187C10.7073 9.33013 11.5845 8.86123 12.5395 8.67126C13.4945 8.4813 14.4845 8.57879 15.3841 8.95143C16.2837 9.32406 17.0526 9.95509 17.5936 10.7647C18.1345 11.5743 18.4233 12.5262 18.4233 13.4999C18.4222 14.8053 17.9031 16.0569 16.9801 16.98C16.057 17.903 14.8054 18.4221 13.5 18.4232ZM13.5 9.42463C12.693 9.42463 11.9041 9.664 11.2331 10.1125C10.5621 10.5609 10.0393 11.1983 9.73061 11.944C9.42196 12.6897 9.34142 13.5101 9.49917 14.3016C9.65692 15.0931 10.0459 15.82 10.6168 16.3903C11.1878 16.9607 11.9151 17.3489 12.7067 17.5058C13.4983 17.6628 14.3187 17.5814 15.0641 17.2719C15.8095 16.9625 16.4463 16.439 16.8941 15.7676C17.3418 15.0961 17.5804 14.307 17.5795 13.4999C17.5784 12.4183 17.1483 11.3813 16.3834 10.6165C15.6186 9.85169 14.5816 9.42153 13.5 9.42041V9.42463Z" fill="black"/>
<path d="M18.7734 8.85938C18.4814 8.85938 18.1959 8.77278 17.9531 8.61053C17.7103 8.44828 17.521 8.21768 17.4093 7.94787C17.2975 7.67806 17.2683 7.38118 17.3252 7.09475C17.3822 6.80833 17.5228 6.54523 17.7294 6.33873C17.9359 6.13223 18.1989 5.9916 18.4854 5.93462C18.7718 5.87765 19.0687 5.90689 19.3385 6.01865C19.6083 6.1304 19.8389 6.31966 20.0012 6.56248C20.1634 6.8053 20.25 7.09078 20.25 7.38281C20.25 7.77442 20.0944 8.14999 19.8175 8.4269C19.5406 8.70381 19.165 8.85938 18.7734 8.85938ZM18.7734 6.75C18.6483 6.75 18.5259 6.78711 18.4219 6.85665C18.3178 6.92618 18.2367 7.02502 18.1888 7.14065C18.1409 7.25628 18.1284 7.38352 18.1528 7.50627C18.1772 7.62902 18.2375 7.74178 18.326 7.83028C18.4145 7.91878 18.5272 7.97905 18.65 8.00347C18.7727 8.02788 18.9 8.01535 19.0156 7.96746C19.1312 7.91956 19.2301 7.83845 19.2996 7.73438C19.3691 7.63032 19.4062 7.50797 19.4062 7.38281C19.4062 7.21498 19.3396 7.05402 19.2209 6.93535C19.1022 6.81667 18.9413 6.75 18.7734 6.75Z" fill="black"/>
</svg>
