<svg width="25" height="25" viewBox="0 0 25 25" fill="none" xmlns="http://www.w3.org/2000/svg">
<path d="M24 3.61765V22.3823C24 22.8113 23.8295 23.2229 23.5261 23.5262C23.2229 23.8296 22.8113 24 22.3823 24H3.61765C3.18861 24 2.77716 23.8296 2.47379 23.5262C2.17043 23.2229 2 22.8113 2 22.3823V3.61765C2 3.18862 2.17043 2.77716 2.47379 2.4738C2.77716 2.17043 3.18861 2 3.61765 2H22.3823C22.8113 2 23.2229 2.17043 23.5261 2.4738C23.8295 2.77716 24 3.18862 24 3.61765ZM8.47058 10.4118H5.23529V20.7647H8.47058V10.4118ZM8.76176 6.85294C8.76346 6.60822 8.71694 6.36556 8.62486 6.1388C8.53279 5.91206 8.39695 5.70567 8.2251 5.53143C8.05326 5.35718 7.84878 5.21848 7.62333 5.12326C7.39789 5.02805 7.15589 4.97816 6.91117 4.97647H6.85293C6.35527 4.97647 5.87798 5.17417 5.52607 5.52607C5.17417 5.87798 4.97646 6.35527 4.97646 6.85294C4.97646 7.35061 5.17417 7.8279 5.52607 8.17981C5.87798 8.53171 6.35527 8.72942 6.85293 8.72942C7.09768 8.73543 7.34121 8.69317 7.5696 8.60504C7.798 8.51692 8.00681 8.38464 8.18407 8.21579C8.36133 8.04694 8.5036 7.84481 8.60272 7.62096C8.70184 7.39711 8.75588 7.15592 8.76176 6.91118V6.85294ZM20.7647 14.4753C20.7647 11.363 18.7847 10.1529 16.8177 10.1529C16.1736 10.1207 15.5323 10.2579 14.9578 10.5508C14.3834 10.8437 13.8956 11.2821 13.5435 11.8223H13.4529V10.4118H10.4118V20.7647H13.647V15.2582C13.6003 14.6943 13.7779 14.1347 14.1414 13.7009C14.5048 13.2672 15.0248 12.9944 15.5882 12.9418H15.7112C16.74 12.9418 17.5035 13.5888 17.5035 15.2194V20.7647H20.7388L20.7647 14.4753Z" stroke="black" stroke-linejoin="round"/>
</svg>
