<svg width="24" height="24" viewBox="0 0 24 24" fill="none" xmlns="http://www.w3.org/2000/svg">
<g clip-path="url(#clip0_207_2603)">
<path d="M7.99998 0C4.69098 0 1.99998 2.691 1.99998 6C1.99998 9.309 4.69098 12 7.99998 12C11.309 12 14 9.309 14 6C14 2.691 11.309 0 7.99998 0ZM7.99998 11C5.24298 11 2.99998 8.757 2.99998 6C2.99998 3.243 5.24298 1 7.99998 1C10.757 1 13 3.243 13 6C13 8.757 10.757 11 7.99998 11ZM11.964 15.269C11.86 15.524 11.568 15.647 11.313 15.545C10.419 15.184 9.47298 15 8.50098 15C4.36498 15 1.00098 18.364 1.00098 22.5V23.5C1.00098 23.776 0.776977 24 0.500977 24C0.224977 24 0.000976562 23.776 0.000976562 23.5V22.5C0.000976562 17.813 3.81398 14 8.50098 14C9.60298 14 10.675 14.208 11.688 14.618C11.944 14.722 12.068 15.013 11.964 15.269ZM19 23.5C19 23.776 18.776 24 18.5 24H16.5C15.121 24 14 22.878 14 21.5V15.5C14 14.122 15.121 13 16.5 13H18.5C18.776 13 19 13.224 19 13.5C19 13.776 18.776 14 18.5 14H16.5C15.673 14 15 14.673 15 15.5V21.5C15 22.327 15.673 23 16.5 23H18.5C18.776 23 19 23.224 19 23.5ZM23.996 18.521C23.996 18.923 23.83 19.339 23.515 19.613L20.831 21.979C20.624 22.161 20.308 22.143 20.125 21.935C19.942 21.728 19.962 21.412 20.169 21.229L22.697 19H17.5C17.224 19 17 18.776 17 18.5C17 18.224 17.224 18 17.5 18H22.562L20.169 15.89C19.962 15.707 19.942 15.391 20.125 15.184C20.308 14.976 20.623 14.957 20.831 15.14L23.519 17.51C23.815 17.764 23.996 18.129 23.996 18.521Z" fill="black"/>
</g>
<defs>
<clipPath id="clip0_207_2603">
<rect width="24" height="24" fill="white"/>
</clipPath>
</defs>
</svg>
