<svg width="85" height="83" viewBox="0 0 85 83" fill="none" xmlns="http://www.w3.org/2000/svg">
<path d="M42.5 41.5L58.4375 25.9375" stroke="#A237FF" stroke-width="4" stroke-miterlimit="10" stroke-linecap="round" stroke-linejoin="round"/>
<path d="M79.6875 15.5625H69.0625V5.1875L58.4375 15.5625V25.9375H69.0625L79.6875 15.5625Z" stroke="#A237FF" stroke-width="5" stroke-miterlimit="10" stroke-linecap="round" stroke-linejoin="round"/>
<path d="M42.5 57.0625C51.302 57.0625 58.4375 50.0949 58.4375 41.5C58.4375 32.9051 51.302 25.9375 42.5 25.9375C33.698 25.9375 26.5625 32.9051 26.5625 41.5C26.5625 50.0949 33.698 57.0625 42.5 57.0625Z" stroke="#A237FF" stroke-width="9" stroke-miterlimit="10" stroke-linecap="round" stroke-linejoin="round"/>
<path d="M71.7188 23.3438C75.1719 28.5312 77.0312 34.7563 77.0312 41.5C77.0312 60.175 61.625 75.2188 42.5 75.2188C23.375 75.2188 7.96875 60.175 7.96875 41.5C7.96875 22.825 23.375 7.78125 42.5 7.78125C49.4062 7.78125 55.7812 9.59688 61.0938 12.9688" stroke="#A237FF" stroke-width="8" stroke-miterlimit="10" stroke-linecap="round" stroke-linejoin="round"/>
</svg>
