<svg width="18" height="18" viewBox="0 0 18 18" fill="none" xmlns="http://www.w3.org/2000/svg">
<path d="M17.34 7.43233L14.4375 4.49983C14.3678 4.42953 14.2849 4.37374 14.1935 4.33566C14.1021 4.29759 14.004 4.27798 13.905 4.27798C13.806 4.27798 13.708 4.29759 13.6166 4.33566C13.5252 4.37374 13.4422 4.42953 13.3725 4.49983C13.3022 4.56955 13.2464 4.6525 13.2084 4.7439C13.1703 4.83529 13.1507 4.93332 13.1507 5.03233C13.1507 5.13134 13.1703 5.22937 13.2084 5.32076C13.2464 5.41216 13.3022 5.49511 13.3725 5.56483L16.0425 8.24983L0.750027 8.24983C0.551115 8.24983 0.360348 8.32885 0.219696 8.4695C0.0790443 8.61015 2.67029e-05 8.80092 2.67029e-05 8.99983C2.67029e-05 9.19874 0.0790443 9.38951 0.219696 9.53016C0.360348 9.67081 0.551115 9.74983 0.750027 9.74983L16.0875 9.74983L13.3725 12.4648C13.2396 12.6043 13.1654 12.7896 13.1654 12.9823C13.1654 13.175 13.2396 13.3603 13.3725 13.4998C13.4422 13.5701 13.5252 13.6259 13.6166 13.664C13.708 13.7021 13.806 13.7217 13.905 13.7217C14.004 13.7217 14.1021 13.7021 14.1935 13.664C14.2849 13.6259 14.3678 13.5701 14.4375 13.4998L17.34 10.6123C17.7614 10.1905 17.998 9.61858 17.998 9.02233C17.998 8.42608 17.7614 7.85421 17.34 7.43233Z" fill="black"/>
</svg>
