<svg width="23" height="24" viewBox="0 0 23 24" fill="none" xmlns="http://www.w3.org/2000/svg">
<path d="M18.9994 8C21.2054 8 22.9994 6.206 22.9994 4C22.9994 1.794 21.2054 0 18.9994 0C16.7934 0 14.9994 1.794 14.9994 4C14.9994 6.206 16.7934 8 18.9994 8ZM18.9994 1C20.6534 1 21.9994 2.346 21.9994 4C21.9994 5.654 20.6534 7 18.9994 7C17.3454 7 15.9994 5.654 15.9994 4C15.9994 2.346 17.3454 1 18.9994 1ZM20.9864 12.726L20.3174 9.85C19.9944 9.923 19.6614 9.966 19.3214 9.984L20.0114 12.952L20.9604 17.037C21.0644 17.519 20.9524 18.019 20.6564 18.406C20.3644 18.783 19.9324 19 19.4714 19H2.52644C2.06544 19 1.63344 18.783 1.34344 18.406C1.04644 18.018 0.93444 17.519 1.03444 17.046L3.26544 7.448C4.07544 3.651 7.25544 1 10.9994 1C11.9004 1 12.7674 1.157 13.5774 1.443C13.7234 1.134 13.8924 0.839 14.0864 0.562C13.1214 0.199 12.0824 0 10.9994 0C6.77944 0 3.19644 2.977 2.29044 7.23L0.0594403 16.828C-0.10456 17.598 0.0744404 18.394 0.55144 19.016C1.03344 19.641 1.75444 19.999 2.52744 19.999H6.10144C6.56644 22.278 8.58544 23.999 11.0004 23.999C13.4154 23.999 15.4344 22.278 15.8994 19.999H19.4744C20.2464 19.999 20.9664 19.641 21.4524 19.015C21.9274 18.393 22.1054 17.596 21.9394 16.819L20.9884 12.725L20.9864 12.726ZM10.9994 23C9.14144 23 7.58844 21.721 7.14144 20H14.8574C14.4104 21.721 12.8584 23 10.9994 23Z" fill="#202020"/>
</svg>
