<svg width="18" height="10" viewBox="0 0 18 10" fill="none" xmlns="http://www.w3.org/2000/svg">
<path d="M0.65802 6.28935L3.56052 9.22185C3.63024 9.29215 3.71319 9.34794 3.80459 9.38602C3.89598 9.42409 3.99401 9.4437 4.09302 9.4437C4.19203 9.4437 4.29006 9.42409 4.38145 9.38602C4.47285 9.34794 4.5558 9.29215 4.62552 9.22185C4.69582 9.15213 4.75161 9.06918 4.78969 8.97778C4.82776 8.88639 4.84737 8.78836 4.84737 8.68935C4.84737 8.59034 4.82776 8.49231 4.78969 8.40092C4.75161 8.30952 4.69582 8.22657 4.62552 8.15685L1.95552 5.47185H17.248C17.4469 5.47185 17.6377 5.39283 17.7784 5.25218C17.919 5.11153 17.998 4.92076 17.998 4.72185C17.998 4.52294 17.919 4.33217 17.7784 4.19152C17.6377 4.05087 17.4469 3.97185 17.248 3.97185H1.91052L4.62552 1.25685C4.75849 1.11737 4.83266 0.932055 4.83266 0.739349C4.83266 0.546643 4.75849 0.361331 4.62552 0.221849C4.5558 0.151552 4.47285 0.0957565 4.38145 0.05768C4.29006 0.0196035 4.19203 0 4.09302 0C3.99401 0 3.89598 0.0196035 3.80459 0.05768C3.71319 0.0957565 3.63024 0.151552 3.56052 0.221849L0.65802 3.10935C0.236669 3.53123 0 4.1031 0 4.69935C0 5.2956 0.236669 5.86747 0.65802 6.28935Z" fill="black"/>
</svg>
