<svg width="24" height="24" viewBox="0 0 24 24" fill="none" xmlns="http://www.w3.org/2000/svg">
<path d="M9 14H11V15H9V14ZM13 15H15V14H13V15ZM9 19H11V18H9V19ZM13 19H15V18H13V19ZM9 7H11V6H9V7ZM13 7H15V6H13V7ZM9 11H11V10H9V11ZM13 11H15V10H13V11ZM24 7.5V24H0V11.5C0 10.121 1.122 9 2.5 9H5V2.5C5 1.121 6.122 0 7.5 0H16.5C17.878 0 19 1.121 19 2.5V5H21.5C22.878 5 24 6.121 24 7.5ZM23 7.5C23 6.673 22.327 6 21.5 6H18V2.5C18 1.673 17.327 1 16.5 1H7.5C6.673 1 6 1.673 6 2.5V10H2.5C1.673 10 1 10.673 1 11.5V23H23V7.5ZM18 15H20V14H18V15ZM18 19H20V18H18V19ZM4 15H6V14H4V15ZM4 19H6V18H4V19ZM18 11H20V10H18V11Z" fill="#282626"/>
</svg>
