<svg width="24" height="24" viewBox="0 0 24 24" fill="none" xmlns="http://www.w3.org/2000/svg">
<g clip-path="url(#clip0_48_152)">
<path d="M23.854 23.146L17.405 16.697C19.012 14.922 20.001 12.577 20.001 10C20 4.486 15.514 0 10 0C4.486 0 0 4.486 0 10C0 15.514 4.486 20 10 20C12.577 20 14.922 19.012 16.697 17.404L23.146 23.853C23.244 23.951 23.372 23.999 23.5 23.999C23.628 23.999 23.756 23.95 23.854 23.853C24.049 23.658 24.049 23.341 23.854 23.146ZM1 10C1 5.038 5.038 1 10 1C14.962 1 19 5.038 19 10C19 14.962 14.963 19 10 19C5.037 19 1 14.962 1 10Z" fill="black"/>
</g>
<defs>
<clipPath id="clip0_48_152">
<rect width="24" height="24" fill="white"/>
</clipPath>
</defs>
</svg>
