<svg width="24" height="24" viewBox="0 0 24 24" fill="none" xmlns="http://www.w3.org/2000/svg">
<path d="M21.5 4H18V2.5C18 1.121 16.878 0 15.5 0H2.5C1.122 0 0 1.121 0 2.5V18.354C0 18.962 0.333 19.52 0.87 19.807C1.115 19.938 1.382 20.002 1.649 20.002C1.968 20.002 2.286 19.909 2.562 19.726L6 17.434V21H17.349L21.438 23.727C21.714 23.911 22.032 24.003 22.351 24.003C22.618 24.003 22.885 23.939 23.13 23.808C23.667 23.521 24 22.963 24 22.355V6.5C24 5.121 22.878 4 21.5 4ZM2.007 18.895C1.806 19.031 1.557 19.042 1.342 18.926C1.128 18.812 1 18.598 1 18.355V2.5C1 1.673 1.673 1 2.5 1H15.5C16.327 1 17 1.673 17 2.5V16H6.349L2.007 18.895ZM23 22.355C23 22.598 22.872 22.812 22.658 22.926C22.443 23.041 22.196 23.03 21.993 22.895L17.652 20H7V17H18V5H21.5C22.327 5 23 5.673 23 6.5V22.355Z" fill="black"/>
</svg>
