<svg width="61" height="58" viewBox="0 0 61 58" fill="none" xmlns="http://www.w3.org/2000/svg">
<rect width="61" height="58" rx="8" fill="#B4FFD9"/>
<g clip-path="url(#clip0_191_349)">
<path d="M40 21H36.5V19.5C36.5 18.121 35.378 17 34 17H21C19.622 17 18.5 18.121 18.5 19.5V35.354C18.5 35.962 18.833 36.52 19.37 36.807C19.615 36.938 19.882 37.002 20.149 37.002C20.468 37.002 20.786 36.909 21.062 36.726L24.5 34.434V38H35.849L39.938 40.727C40.214 40.911 40.532 41.003 40.851 41.003C41.118 41.003 41.385 40.939 41.63 40.808C42.167 40.521 42.5 39.963 42.5 39.355V23.5C42.5 22.121 41.378 21 40 21ZM20.507 35.895C20.306 36.031 20.057 36.042 19.842 35.926C19.628 35.812 19.5 35.598 19.5 35.355V19.5C19.5 18.673 20.173 18 21 18H34C34.827 18 35.5 18.673 35.5 19.5V33H24.849L20.507 35.895ZM41.5 39.355C41.5 39.598 41.372 39.812 41.158 39.926C40.943 40.041 40.696 40.03 40.493 39.895L36.152 37H25.5V34H36.5V22H40C40.827 22 41.5 22.673 41.5 23.5V39.355Z" fill="black"/>
</g>
<defs>
<clipPath id="clip0_191_349">
<rect width="24" height="24" fill="white" transform="translate(18.5 17)"/>
</clipPath>
</defs>
</svg>
