<svg width="61" height="58" viewBox="0 0 61 58" fill="none" xmlns="http://www.w3.org/2000/svg">
<rect width="61" height="58" rx="8" fill="#B4F8FF"/>
<path d="M27.5 31H29.5V32H27.5V31ZM31.5 32H33.5V31H31.5V32ZM27.5 36H29.5V35H27.5V36ZM31.5 36H33.5V35H31.5V36ZM27.5 24H29.5V23H27.5V24ZM31.5 24H33.5V23H31.5V24ZM27.5 28H29.5V27H27.5V28ZM31.5 28H33.5V27H31.5V28ZM42.5 24.5V41H18.5V28.5C18.5 27.121 19.622 26 21 26H23.5V19.5C23.5 18.121 24.622 17 26 17H35C36.378 17 37.5 18.121 37.5 19.5V22H40C41.378 22 42.5 23.121 42.5 24.5ZM41.5 24.5C41.5 23.673 40.827 23 40 23H36.5V19.5C36.5 18.673 35.827 18 35 18H26C25.173 18 24.5 18.673 24.5 19.5V27H21C20.173 27 19.5 27.673 19.5 28.5V40H41.5V24.5ZM36.5 32H38.5V31H36.5V32ZM36.5 36H38.5V35H36.5V36ZM22.5 32H24.5V31H22.5V32ZM22.5 36H24.5V35H22.5V36ZM36.5 28H38.5V27H36.5V28Z" fill="black"/>
</svg>
