<svg width="47" height="47" viewBox="0 0 47 47" fill="none" xmlns="http://www.w3.org/2000/svg">
<path d="M31.3921 36.4563L41.7595 26.9525C41.949 26.7787 42.1709 26.6439 42.4126 26.5558C42.6542 26.4677 42.9108 26.4281 43.1678 26.4392C43.4247 26.4503 43.677 26.5118 43.9101 26.6204C44.1433 26.729 44.3527 26.8824 44.5266 27.072C44.7004 27.2615 44.8353 27.4834 44.9233 27.7251C45.0114 27.9667 45.0511 28.2233 45.04 28.4803C45.0289 28.7372 44.9673 28.9895 44.8587 29.2226C44.7501 29.4558 44.5967 29.6653 44.4071 29.8391L32.6571 40.6099C32.2851 40.9511 31.7958 41.1354 31.2912 41.1244C30.7865 41.1135 30.3056 40.9081 29.9488 40.5512L24.0738 34.6762C23.717 34.3068 23.5197 33.8122 23.5241 33.2987C23.5286 32.7852 23.7345 32.2941 24.0976 31.931C24.4607 31.5679 24.9519 31.3619 25.4654 31.3574C25.9788 31.353 26.4735 31.5504 26.8428 31.9071L31.3921 36.4563ZM1.95831 39.1666C1.96305 35.6589 3.01316 32.2323 4.97455 29.3242C6.93594 26.4161 9.71959 24.1586 12.97 22.84C11.3071 21.2903 10.2376 19.2085 9.94625 16.9542C9.6549 14.6998 10.16 12.4145 11.3743 10.493C12.5886 8.57143 14.4359 7.13429 16.597 6.42979C18.7582 5.72528 21.0975 5.79766 23.211 6.63441C25.3245 7.47116 27.0793 9.01975 28.1725 11.0127C29.2657 13.0056 29.6286 15.3178 29.1985 17.5498C28.7683 19.7818 27.5722 21.7935 25.8166 23.2375C24.0611 24.6814 21.8564 25.4669 19.5833 25.4583C16.2879 25.4624 13.1039 26.6516 10.6127 28.8089C8.12145 30.9661 6.48922 33.9473 6.01402 37.2083H19.5833C20.1027 37.2083 20.6008 37.4146 20.9681 37.7819C21.3353 38.1492 21.5416 38.6473 21.5416 39.1666C21.5416 39.686 21.3353 40.1841 20.9681 40.5514C20.6008 40.9187 20.1027 41.125 19.5833 41.125H3.91665C3.39726 41.125 2.89915 40.9187 2.5319 40.5514C2.16464 40.1841 1.95831 39.686 1.95831 39.1666ZM13.7083 15.6666C13.7083 16.8286 14.0529 17.9645 14.6984 18.9306C15.344 19.8968 16.2615 20.6498 17.335 21.0944C18.4086 21.5391 19.5898 21.6554 20.7295 21.4288C21.8691 21.2021 22.9159 20.6425 23.7376 19.8209C24.5592 18.9993 25.1187 17.9524 25.3454 16.8128C25.5721 15.6732 25.4558 14.4919 25.0111 13.4184C24.5664 12.3449 23.8134 11.4273 22.8473 10.7818C21.8811 10.1362 20.7453 9.79164 19.5833 9.79164C18.0252 9.79164 16.5308 10.4106 15.4291 11.5124C14.3273 12.6142 13.7083 14.1085 13.7083 15.6666Z" fill="#A237FF"/>
</svg>
