<svg width="75" height="74" viewBox="0 0 75 74" fill="none" xmlns="http://www.w3.org/2000/svg">
<path d="M68.2812 65.2126L46.4062 43.6292C46.266 43.4818 46.0965 43.3642 45.9084 43.2839C45.7203 43.2035 45.5175 43.1621 45.3125 43.1621C45.1075 43.1621 44.9047 43.2035 44.7166 43.2839C44.5285 43.3642 44.359 43.4818 44.2187 43.6292L39.0625 48.6859L25 34.8109V27.7501H34.375V30.8334C34.375 31.2423 34.5396 31.6344 34.8326 31.9235C35.1257 32.2127 35.5231 32.3751 35.9375 32.3751H54.6875C54.9757 32.3718 55.2578 32.293 55.5049 32.1467C55.752 32.0004 55.9552 31.7919 56.0938 31.5426C56.2166 31.2863 56.267 31.0019 56.2395 30.7197C56.212 30.4374 56.1076 30.1678 55.9375 29.9392L50.375 22.3542L55.9375 14.7692C56.1334 14.5558 56.2661 14.2935 56.3212 14.0107C56.3763 13.728 56.3517 13.4358 56.25 13.1659C56.0995 12.8925 55.8716 12.6683 55.5942 12.5205C55.3167 12.3726 55.0017 12.3076 54.6875 12.3334H43.75V7.70841C43.75 7.29954 43.5854 6.90741 43.2924 6.61829C42.9993 6.32917 42.6019 6.16675 42.1875 6.16675H23.4375C23.0231 6.16675 22.6257 6.32917 22.3326 6.61829C22.0396 6.90741 21.875 7.29954 21.875 7.70841V34.8109L7.625 48.8709C6.7514 49.7412 6.25785 50.9144 6.25 52.1392V63.2084C6.25 64.435 6.74386 65.6114 7.62294 66.4788C8.50201 67.3461 9.6943 67.8334 10.9375 67.8334H67.1875C67.496 67.8319 67.7971 67.7403 68.0529 67.5702C68.3087 67.4001 68.5078 67.1591 68.625 66.8776C68.7526 66.5997 68.7881 66.2891 68.7264 65.9902C68.6647 65.6912 68.5089 65.4191 68.2812 65.2126ZM51.625 15.4167L47.1875 21.5834C46.9898 21.8407 46.8828 22.1547 46.8828 22.4776C46.8828 22.8004 46.9898 23.1145 47.1875 23.3717L51.625 29.5384H37.5V27.7501H42.1875C42.6019 27.7501 42.9993 27.5877 43.2924 27.2985C43.5854 27.0094 43.75 26.6173 43.75 26.2084V15.4167H51.625ZM40.625 24.6667H25V9.25008H40.625V24.6667ZM10.9375 64.7501C10.5231 64.7501 10.1257 64.5877 9.83265 64.2985C9.53962 64.0094 9.375 63.6173 9.375 63.2084V52.1392C9.3725 51.937 9.41292 51.7366 9.49365 51.5507C9.57438 51.3649 9.69363 51.1977 9.84375 51.0601L23.4375 37.6476L37.9687 51.9542L50.9062 64.7501H10.9375ZM55.3437 64.7501L41.2812 50.8751L45.3125 46.8976L63.4062 64.7501H55.3437Z" fill="#A237FF"/>
</svg>
