<svg width="72" height="46" viewBox="0 0 72 46" fill="none" xmlns="http://www.w3.org/2000/svg">
<path d="M7.72196 43.9186V43.3066L11.961 38.0506L12.06 38.4016H7.78496V37.6186H12.87V38.2306L8.64896 43.4866L8.54096 43.1356H12.987V43.9186H7.72196ZM16.0065 43.9726C15.5265 43.9726 15.1005 43.8676 14.7285 43.6576C14.3565 43.4476 14.0625 43.1596 13.8465 42.7936C13.6305 42.4216 13.5225 42.0016 13.5225 41.5336C13.5225 41.0596 13.6305 40.6396 13.8465 40.2736C14.0625 39.9076 14.3565 39.6226 14.7285 39.4186C15.1005 39.2086 15.5265 39.1036 16.0065 39.1036C16.4805 39.1036 16.9035 39.2086 17.2755 39.4186C17.6535 39.6226 17.9475 39.9076 18.1575 40.2736C18.3735 40.6336 18.4815 41.0536 18.4815 41.5336C18.4815 42.0076 18.3735 42.4276 18.1575 42.7936C17.9475 43.1596 17.6535 43.4476 17.2755 43.6576C16.9035 43.8676 16.4805 43.9726 16.0065 43.9726ZM16.0065 43.2166C16.3125 43.2166 16.5855 43.1476 16.8255 43.0096C17.0715 42.8716 17.2635 42.6766 17.4015 42.4246C17.5395 42.1666 17.6085 41.8696 17.6085 41.5336C17.6085 41.1916 17.5395 40.8976 17.4015 40.6516C17.2635 40.3996 17.0715 40.2046 16.8255 40.0666C16.5855 39.9286 16.3125 39.8596 16.0065 39.8596C15.7005 39.8596 15.4275 39.9286 15.1875 40.0666C14.9475 40.2046 14.7555 40.3996 14.6115 40.6516C14.4675 40.8976 14.3955 41.1916 14.3955 41.5336C14.3955 41.8696 14.4675 42.1666 14.6115 42.4246C14.7555 42.6766 14.9475 42.8716 15.1875 43.0096C15.4275 43.1476 15.7005 43.2166 16.0065 43.2166ZM22.2234 39.1036C22.6134 39.1036 22.9554 39.1786 23.2494 39.3286C23.5494 39.4786 23.7834 39.7066 23.9514 40.0126C24.1194 40.3186 24.2034 40.7056 24.2034 41.1736V43.9186H23.3394V41.2726C23.3394 40.8106 23.2254 40.4626 22.9974 40.2286C22.7754 39.9946 22.4604 39.8776 22.0524 39.8776C21.7464 39.8776 21.4794 39.9376 21.2514 40.0576C21.0234 40.1776 20.8464 40.3546 20.7204 40.5886C20.6004 40.8226 20.5404 41.1136 20.5404 41.4616V43.9186H19.6764V39.1486H20.5044V40.4356L20.3694 40.0936C20.5254 39.7816 20.7654 39.5386 21.0894 39.3646C21.4134 39.1906 21.7914 39.1036 22.2234 39.1036ZM25.8024 43.9186V39.1486H26.6664V43.9186H25.8024ZM26.2344 38.2306C26.0664 38.2306 25.9254 38.1766 25.8114 38.0686C25.7034 37.9606 25.6494 37.8286 25.6494 37.6726C25.6494 37.5106 25.7034 37.3756 25.8114 37.2676C25.9254 37.1596 26.0664 37.1056 26.2344 37.1056C26.4024 37.1056 26.5404 37.1596 26.6484 37.2676C26.7624 37.3696 26.8194 37.4986 26.8194 37.6546C26.8194 37.8166 26.7654 37.9546 26.6574 38.0686C26.5494 38.1766 26.4084 38.2306 26.2344 38.2306ZM27.6231 43.9186L29.6751 41.2546L29.6661 41.6956L27.7131 39.1486H28.6761L30.1701 41.1106H29.8011L31.2951 39.1486H32.2401L30.2601 41.7136L30.2691 41.2546L32.3391 43.9186H31.3581L29.7831 41.8306L30.1341 41.8846L28.5861 43.9186H27.6231ZM35.8249 43.9186V37.6186H38.2819C38.8339 37.6186 39.3049 37.7056 39.6949 37.8796C40.0849 38.0536 40.3849 38.3056 40.5949 38.6356C40.8049 38.9656 40.9099 39.3586 40.9099 39.8146C40.9099 40.2706 40.8049 40.6636 40.5949 40.9936C40.3849 41.3176 40.0849 41.5666 39.6949 41.7406C39.3049 41.9146 38.8339 42.0016 38.2819 42.0016H36.3199L36.7249 41.5876V43.9186H35.8249ZM40.0369 43.9186L38.4349 41.6326H39.3979L41.0179 43.9186H40.0369ZM36.7249 41.6776L36.3199 41.2366H38.2549C38.8309 41.2366 39.2659 41.1136 39.5599 40.8676C39.8599 40.6156 40.0099 40.2646 40.0099 39.8146C40.0099 39.3646 39.8599 39.0166 39.5599 38.7706C39.2659 38.5246 38.8309 38.4016 38.2549 38.4016H36.3199L36.7249 37.9516V41.6776ZM44.3619 43.9726C43.8519 43.9726 43.4019 43.8676 43.0119 43.6576C42.6279 43.4476 42.3279 43.1596 42.1119 42.7936C41.9019 42.4276 41.7969 42.0076 41.7969 41.5336C41.7969 41.0596 41.8989 40.6396 42.1029 40.2736C42.3129 39.9076 42.5979 39.6226 42.9579 39.4186C43.3239 39.2086 43.7349 39.1036 44.1909 39.1036C44.6529 39.1036 45.0609 39.2056 45.4149 39.4096C45.7689 39.6136 46.0449 39.9016 46.2429 40.2736C46.4469 40.6396 46.5489 41.0686 46.5489 41.5606C46.5489 41.5966 46.5459 41.6386 46.5399 41.6866C46.5399 41.7346 46.5369 41.7796 46.5309 41.8216H42.4719V41.2006H46.0809L45.7299 41.4166C45.7359 41.1106 45.6729 40.8376 45.5409 40.5976C45.4089 40.3576 45.2259 40.1716 44.9919 40.0396C44.7639 39.9016 44.4969 39.8326 44.1909 39.8326C43.8909 39.8326 43.6239 39.9016 43.3899 40.0396C43.1559 40.1716 42.9729 40.3606 42.8409 40.6066C42.7089 40.8466 42.6429 41.1226 42.6429 41.4346V41.5786C42.6429 41.8966 42.7149 42.1816 42.8589 42.4336C43.0089 42.6796 43.2159 42.8716 43.4799 43.0096C43.7439 43.1476 44.0469 43.2166 44.3889 43.2166C44.6709 43.2166 44.9259 43.1686 45.1539 43.0726C45.3879 42.9766 45.5919 42.8326 45.7659 42.6406L46.2429 43.1986C46.0269 43.4506 45.7569 43.6426 45.4329 43.7746C45.1149 43.9066 44.7579 43.9726 44.3619 43.9726ZM50.5779 43.9186V42.9106L50.5329 42.7216V41.0026C50.5329 40.6366 50.4249 40.3546 50.2089 40.1566C49.9989 39.9526 49.6809 39.8506 49.2549 39.8506C48.9729 39.8506 48.6969 39.8986 48.4269 39.9946C48.1569 40.0846 47.9289 40.2076 47.7429 40.3636L47.3829 39.7156C47.6289 39.5176 47.9229 39.3676 48.2649 39.2656C48.6129 39.1576 48.9759 39.1036 49.3539 39.1036C50.0079 39.1036 50.5119 39.2626 50.8659 39.5806C51.2199 39.8986 51.3969 40.3846 51.3969 41.0386V43.9186H50.5779ZM49.0119 43.9726C48.6579 43.9726 48.3459 43.9126 48.0759 43.7926C47.8119 43.6726 47.6079 43.5076 47.4639 43.2976C47.3199 43.0816 47.2479 42.8386 47.2479 42.5686C47.2479 42.3106 47.3079 42.0766 47.4279 41.8666C47.5539 41.6566 47.7549 41.4886 48.0309 41.3626C48.3129 41.2366 48.6909 41.1736 49.1649 41.1736H50.6769V41.7946H49.2009C48.7689 41.7946 48.4779 41.8666 48.3279 42.0106C48.1779 42.1546 48.1029 42.3286 48.1029 42.5326C48.1029 42.7666 48.1959 42.9556 48.3819 43.0996C48.5679 43.2376 48.8259 43.3066 49.1559 43.3066C49.4799 43.3066 49.7619 43.2346 50.0019 43.0906C50.2479 42.9466 50.4249 42.7366 50.5329 42.4606L50.7039 43.0546C50.5899 43.3366 50.3889 43.5616 50.1009 43.7296C49.8129 43.8916 49.4499 43.9726 49.0119 43.9726ZM52.9958 43.9186V37.2406H53.8598V43.9186H52.9958ZM57.2705 43.9726C56.7905 43.9726 56.4185 43.8436 56.1545 43.5856C55.8905 43.3276 55.7585 42.9586 55.7585 42.4786V38.1046H56.6225V42.4426C56.6225 42.7006 56.6855 42.8986 56.8115 43.0366C56.9435 43.1746 57.1295 43.2436 57.3695 43.2436C57.6395 43.2436 57.8645 43.1686 58.0445 43.0186L58.3145 43.6396C58.1825 43.7536 58.0235 43.8376 57.8375 43.8916C57.6575 43.9456 57.4685 43.9726 57.2705 43.9726ZM54.9485 39.8596V39.1486H57.9905V39.8596H54.9485ZM59.4781 45.7186C59.2501 45.7186 59.0281 45.6796 58.8121 45.6016C58.5961 45.5296 58.4101 45.4216 58.2541 45.2776L58.6231 44.6296C58.7431 44.7436 58.8751 44.8306 59.0191 44.8906C59.1631 44.9506 59.3161 44.9806 59.4781 44.9806C59.6881 44.9806 59.8621 44.9266 60.0001 44.8186C60.1381 44.7106 60.2671 44.5186 60.3871 44.2426L60.6841 43.5856L60.7741 43.4776L62.6461 39.1486H63.4921L61.1791 44.3956C61.0411 44.7316 60.8851 44.9956 60.7111 45.1876C60.5431 45.3796 60.3571 45.5146 60.1531 45.5926C59.9491 45.6766 59.7241 45.7186 59.4781 45.7186ZM60.6121 44.0716L58.4341 39.1486H59.3341L61.1881 43.3966L60.6121 44.0716Z" fill="#0F2A44"/>
<path d="M16.2678 15.2415V32.1263L18.0658 31.7469V16.5696L35.1465 3.85854L51.6879 16.3798V31.7469L53.8454 32.1263V15.2415L35.1465 0.633362L16.2678 15.2415Z" fill="#24364E" stroke="#24364E"/>
<path d="M20.8747 18.1899V30.8595L24.3073 30.3165V19.9998L35.3276 12.0361L45.9867 19.6378V30.3165L49.4192 30.8595V18.1899L35.3276 7.51123L20.8747 18.1899Z" fill="#24364E" stroke="#24364E"/>
<path d="M27.5592 22.3879V29.791L26.6559 29.9632V21.6993L35.3276 16.0178L43.6381 21.8714V30.1354L42.5541 29.791V22.3879L35.3276 17.3951L27.5592 22.3879Z" fill="#24364E" stroke="#24364E"/>
<path d="M0.459961 38.4613C37.4956 19.2757 71.46 38.4613 71.46 38.4613" stroke="#0F2A44" stroke-width="2"/>
</svg>


