<svg width="245" height="103" viewBox="0 0 245 103" fill="none" xmlns="http://www.w3.org/2000/svg">
<path d="M92.387 58.6338V58.0218L96.626 52.7658L96.725 53.1168H92.45V52.3338H97.535V52.9458L93.314 58.2018L93.206 57.8508H97.652V58.6338H92.387ZM100.672 58.6878C100.192 58.6878 99.7656 58.5828 99.3936 58.3728C99.0216 58.1628 98.7276 57.8748 98.5116 57.5088C98.2956 57.1368 98.1876 56.7168 98.1876 56.2488C98.1876 55.7748 98.2956 55.3548 98.5116 54.9888C98.7276 54.6228 99.0216 54.3378 99.3936 54.1338C99.7656 53.9238 100.192 53.8188 100.672 53.8188C101.146 53.8188 101.569 53.9238 101.941 54.1338C102.319 54.3378 102.613 54.6228 102.823 54.9888C103.039 55.3488 103.147 55.7688 103.147 56.2488C103.147 56.7228 103.039 57.1428 102.823 57.5088C102.613 57.8748 102.319 58.1628 101.941 58.3728C101.569 58.5828 101.146 58.6878 100.672 58.6878ZM100.672 57.9318C100.978 57.9318 101.251 57.8628 101.491 57.7248C101.737 57.5868 101.929 57.3918 102.067 57.1398C102.205 56.8818 102.274 56.5848 102.274 56.2488C102.274 55.9068 102.205 55.6128 102.067 55.3668C101.929 55.1148 101.737 54.9198 101.491 54.7818C101.251 54.6438 100.978 54.5748 100.672 54.5748C100.366 54.5748 100.093 54.6438 99.8526 54.7818C99.6126 54.9198 99.4206 55.1148 99.2766 55.3668C99.1326 55.6128 99.0606 55.9068 99.0606 56.2488C99.0606 56.5848 99.1326 56.8818 99.2766 57.1398C99.4206 57.3918 99.6126 57.5868 99.8526 57.7248C100.093 57.8628 100.366 57.9318 100.672 57.9318ZM106.888 53.8188C107.278 53.8188 107.62 53.8938 107.914 54.0438C108.214 54.1938 108.448 54.4218 108.616 54.7278C108.784 55.0338 108.868 55.4208 108.868 55.8888V58.6338H108.004V55.9878C108.004 55.5258 107.89 55.1778 107.662 54.9438C107.44 54.7098 107.125 54.5928 106.717 54.5928C106.411 54.5928 106.144 54.6528 105.916 54.7728C105.688 54.8928 105.511 55.0698 105.385 55.3038C105.265 55.5378 105.205 55.8288 105.205 56.1768V58.6338H104.341V53.8638H105.169V55.1508L105.034 54.8088C105.19 54.4968 105.43 54.2538 105.754 54.0798C106.078 53.9058 106.456 53.8188 106.888 53.8188ZM110.467 58.6338V53.8638H111.331V58.6338H110.467ZM110.899 52.9458C110.731 52.9458 110.59 52.8918 110.476 52.7838C110.368 52.6758 110.314 52.5438 110.314 52.3878C110.314 52.2258 110.368 52.0908 110.476 51.9828C110.59 51.8748 110.731 51.8208 110.899 51.8208C111.067 51.8208 111.205 51.8748 111.313 51.9828C111.427 52.0848 111.484 52.2138 111.484 52.3698C111.484 52.5318 111.43 52.6698 111.322 52.7838C111.214 52.8918 111.073 52.9458 110.899 52.9458ZM112.288 58.6338L114.34 55.9698L114.331 56.4108L112.378 53.8638H113.341L114.835 55.8258H114.466L115.96 53.8638H116.905L114.925 56.4288L114.934 55.9698L117.004 58.6338H116.023L114.448 56.5458L114.799 56.5998L113.251 58.6338H112.288ZM120.49 58.6338V52.3338H122.947C123.499 52.3338 123.97 52.4208 124.36 52.5948C124.75 52.7688 125.05 53.0208 125.26 53.3508C125.47 53.6808 125.575 54.0738 125.575 54.5298C125.575 54.9858 125.47 55.3788 125.26 55.7088C125.05 56.0328 124.75 56.2818 124.36 56.4558C123.97 56.6298 123.499 56.7168 122.947 56.7168H120.985L121.39 56.3028V58.6338H120.49ZM124.702 58.6338L123.1 56.3478H124.063L125.683 58.6338H124.702ZM121.39 56.3928L120.985 55.9518H122.92C123.496 55.9518 123.931 55.8288 124.225 55.5828C124.525 55.3308 124.675 54.9798 124.675 54.5298C124.675 54.0798 124.525 53.7318 124.225 53.4858C123.931 53.2398 123.496 53.1168 122.92 53.1168H120.985L121.39 52.6668V56.3928ZM129.027 58.6878C128.517 58.6878 128.067 58.5828 127.677 58.3728C127.293 58.1628 126.993 57.8748 126.777 57.5088C126.567 57.1428 126.462 56.7228 126.462 56.2488C126.462 55.7748 126.564 55.3548 126.768 54.9888C126.978 54.6228 127.263 54.3378 127.623 54.1338C127.989 53.9238 128.4 53.8188 128.856 53.8188C129.318 53.8188 129.726 53.9208 130.08 54.1248C130.434 54.3288 130.71 54.6168 130.908 54.9888C131.112 55.3548 131.214 55.7838 131.214 56.2758C131.214 56.3118 131.211 56.3538 131.205 56.4018C131.205 56.4498 131.202 56.4948 131.196 56.5368H127.137V55.9158H130.746L130.395 56.1318C130.401 55.8258 130.338 55.5528 130.206 55.3128C130.074 55.0728 129.891 54.8868 129.657 54.7548C129.429 54.6168 129.162 54.5478 128.856 54.5478C128.556 54.5478 128.289 54.6168 128.055 54.7548C127.821 54.8868 127.638 55.0758 127.506 55.3218C127.374 55.5618 127.308 55.8378 127.308 56.1498V56.2938C127.308 56.6118 127.38 56.8968 127.524 57.1488C127.674 57.3948 127.881 57.5868 128.145 57.7248C128.409 57.8628 128.712 57.9318 129.054 57.9318C129.336 57.9318 129.591 57.8838 129.819 57.7878C130.053 57.6918 130.257 57.5478 130.431 57.3558L130.908 57.9138C130.692 58.1658 130.422 58.3578 130.098 58.4898C129.78 58.6218 129.423 58.6878 129.027 58.6878ZM135.243 58.6338V57.6258L135.198 57.4368V55.7178C135.198 55.3518 135.09 55.0698 134.874 54.8718C134.664 54.6678 134.346 54.5658 133.92 54.5658C133.638 54.5658 133.362 54.6138 133.092 54.7098C132.822 54.7998 132.594 54.9228 132.408 55.0788L132.048 54.4308C132.294 54.2328 132.588 54.0828 132.93 53.9808C133.278 53.8728 133.641 53.8188 134.019 53.8188C134.673 53.8188 135.177 53.9778 135.531 54.2958C135.885 54.6138 136.062 55.0998 136.062 55.7538V58.6338H135.243ZM133.677 58.6878C133.323 58.6878 133.011 58.6278 132.741 58.5078C132.477 58.3878 132.273 58.2228 132.129 58.0128C131.985 57.7968 131.913 57.5538 131.913 57.2838C131.913 57.0258 131.973 56.7918 132.093 56.5818C132.219 56.3718 132.42 56.2038 132.696 56.0778C132.978 55.9518 133.356 55.8888 133.83 55.8888H135.342V56.5098H133.866C133.434 56.5098 133.143 56.5818 132.993 56.7258C132.843 56.8698 132.768 57.0438 132.768 57.2478C132.768 57.4818 132.861 57.6708 133.047 57.8148C133.233 57.9528 133.491 58.0218 133.821 58.0218C134.145 58.0218 134.427 57.9498 134.667 57.8058C134.913 57.6618 135.09 57.4518 135.198 57.1758L135.369 57.7698C135.255 58.0518 135.054 58.2768 134.766 58.4448C134.478 58.6068 134.115 58.6878 133.677 58.6878ZM137.661 58.6338V51.9558H138.525V58.6338H137.661ZM141.936 58.6878C141.456 58.6878 141.084 58.5588 140.82 58.3008C140.556 58.0428 140.424 57.6738 140.424 57.1938V52.8198H141.288V57.1578C141.288 57.4158 141.351 57.6138 141.477 57.7518C141.609 57.8898 141.795 57.9588 142.035 57.9588C142.305 57.9588 142.53 57.8838 142.71 57.7338L142.98 58.3548C142.848 58.4688 142.689 58.5528 142.503 58.6068C142.323 58.6608 142.134 58.6878 141.936 58.6878ZM139.614 54.5748V53.8638H142.656V54.5748H139.614ZM144.143 60.4338C143.915 60.4338 143.693 60.3948 143.477 60.3168C143.261 60.2448 143.075 60.1368 142.919 59.9928L143.288 59.3448C143.408 59.4588 143.54 59.5458 143.684 59.6058C143.828 59.6658 143.981 59.6958 144.143 59.6958C144.353 59.6958 144.527 59.6418 144.665 59.5338C144.803 59.4258 144.932 59.2338 145.052 58.9578L145.349 58.3008L145.439 58.1928L147.311 53.8638H148.157L145.844 59.1108C145.706 59.4468 145.55 59.7108 145.376 59.9028C145.208 60.0948 145.022 60.2298 144.818 60.3078C144.614 60.3918 144.389 60.4338 144.143 60.4338ZM145.277 58.7868L143.099 53.8638H143.999L145.853 58.1118L145.277 58.7868Z" fill="#0F2A44"/>
<path d="M93.8 21.9242V46.5325L96.4205 45.9795V23.8596L121.314 5.33426L145.422 23.5831V45.9795L148.567 46.5325V21.9242L121.314 0.633789L93.8 21.9242Z" fill="#24364E" stroke="#24364E"/>
<path d="M100.514 26.2216V44.6866L105.517 43.8952V28.8594L121.579 17.2528L137.113 28.3318V43.8952L142.116 44.6866V26.2216L121.579 10.6582L100.514 26.2216Z" fill="#24364E" stroke="#24364E"/>
<path d="M110.256 32.3396V43.1291L108.94 43.38V31.336L121.578 23.0557L133.69 31.5869V43.6309L132.11 43.1291V32.3396L121.578 25.063L110.256 32.3396Z" fill="#24364E" stroke="#24364E"/>
<path d="M70.7612 55.7652C124.738 27.8037 174.239 55.7653 174.239 55.7653" stroke="#0F2A44" stroke-width="2"/>
<path d="M11.0707 96.6338L7.17771 84.7338H10.0337L13.4167 95.2738H11.9887L15.5247 84.7338H18.0747L21.4747 95.2738H20.0977L23.5657 84.7338H26.2007L22.3077 96.6338H19.3497L16.3407 87.3858H17.1227L14.0287 96.6338H11.0707ZM31.4095 96.7698C30.3668 96.7698 29.4488 96.5658 28.6555 96.1578C27.8735 95.7498 27.2672 95.1945 26.8365 94.4918C26.4058 93.7778 26.1905 92.9675 26.1905 92.0608C26.1905 91.1428 26.4002 90.3325 26.8195 89.6298C27.2502 88.9158 27.8338 88.3605 28.5705 87.9638C29.3072 87.5558 30.1402 87.3518 31.0695 87.3518C31.9648 87.3518 32.7695 87.5445 33.4835 87.9298C34.2088 88.3038 34.7812 88.8478 35.2005 89.5618C35.6198 90.2645 35.8295 91.1088 35.8295 92.0948C35.8295 92.1968 35.8238 92.3158 35.8125 92.4518C35.8012 92.5765 35.7898 92.6955 35.7785 92.8088H28.3495V91.2618H34.3845L33.3645 91.7208C33.3645 91.2448 33.2682 90.8311 33.0755 90.4798C32.8828 90.1285 32.6165 89.8565 32.2765 89.6638C31.9365 89.4598 31.5398 89.3578 31.0865 89.3578C30.6332 89.3578 30.2308 89.4598 29.8795 89.6638C29.5395 89.8565 29.2732 90.1341 29.0805 90.4968C28.8878 90.8481 28.7915 91.2675 28.7915 91.7548V92.1628C28.7915 92.6615 28.8992 93.1035 29.1145 93.4888C29.3412 93.8628 29.6528 94.1518 30.0495 94.3558C30.4575 94.5485 30.9335 94.6448 31.4775 94.6448C31.9648 94.6448 32.3898 94.5711 32.7525 94.4238C33.1265 94.2765 33.4665 94.0555 33.7725 93.7608L35.1835 95.2908C34.7642 95.7668 34.2372 96.1351 33.6025 96.3958C32.9678 96.6451 32.2368 96.7698 31.4095 96.7698ZM37.5951 96.6338V84.0198H40.2471V96.6338H37.5951ZM47.1284 96.7698C46.1424 96.7698 45.264 96.5715 44.4934 96.1748C43.7227 95.7668 43.1164 95.2058 42.6744 94.4918C42.2437 93.7778 42.0284 92.9675 42.0284 92.0608C42.0284 91.1428 42.2437 90.3325 42.6744 89.6298C43.1164 88.9158 43.7227 88.3605 44.4934 87.9638C45.264 87.5558 46.1424 87.3518 47.1284 87.3518C48.0917 87.3518 48.9304 87.5558 49.6444 87.9638C50.3584 88.3605 50.8854 88.9328 51.2254 89.6808L49.1684 90.7858C48.9304 90.3551 48.63 90.0378 48.2674 89.8338C47.916 89.6298 47.5307 89.5278 47.1114 89.5278C46.658 89.5278 46.25 89.6298 45.8874 89.8338C45.5247 90.0378 45.2357 90.3268 45.0204 90.7008C44.8164 91.0748 44.7144 91.5281 44.7144 92.0608C44.7144 92.5935 44.8164 93.0468 45.0204 93.4208C45.2357 93.7948 45.5247 94.0838 45.8874 94.2878C46.25 94.4918 46.658 94.5938 47.1114 94.5938C47.5307 94.5938 47.916 94.4975 48.2674 94.3048C48.63 94.1008 48.9304 93.7778 49.1684 93.3358L51.2254 94.4578C50.8854 95.1945 50.3584 95.7668 49.6444 96.1748C48.9304 96.5715 48.0917 96.7698 47.1284 96.7698ZM56.9881 96.7698C56.0134 96.7698 55.1464 96.5658 54.3871 96.1578C53.6391 95.7498 53.0441 95.1945 52.6021 94.4918C52.1714 93.7778 51.9561 92.9675 51.9561 92.0608C51.9561 91.1428 52.1714 90.3325 52.6021 89.6298C53.0441 88.9158 53.6391 88.3605 54.3871 87.9638C55.1464 87.5558 56.0134 87.3518 56.9881 87.3518C57.9514 87.3518 58.8128 87.5558 59.5721 87.9638C60.3314 88.3605 60.9264 88.9101 61.3571 89.6128C61.7878 90.3155 62.0031 91.1315 62.0031 92.0608C62.0031 92.9675 61.7878 93.7778 61.3571 94.4918C60.9264 95.1945 60.3314 95.7498 59.5721 96.1578C58.8128 96.5658 57.9514 96.7698 56.9881 96.7698ZM56.9881 94.5938C57.4301 94.5938 57.8268 94.4918 58.1781 94.2878C58.5294 94.0838 58.8071 93.7948 59.0111 93.4208C59.2151 93.0355 59.3171 92.5821 59.3171 92.0608C59.3171 91.5281 59.2151 91.0748 59.0111 90.7008C58.8071 90.3268 58.5294 90.0378 58.1781 89.8338C57.8268 89.6298 57.4301 89.5278 56.9881 89.5278C56.5461 89.5278 56.1494 89.6298 55.7981 89.8338C55.4468 90.0378 55.1634 90.3268 54.9481 90.7008C54.7441 91.0748 54.6421 91.5281 54.6421 92.0608C54.6421 92.5821 54.7441 93.0355 54.9481 93.4208C55.1634 93.7948 55.4468 94.0838 55.7981 94.2878C56.1494 94.4918 56.5461 94.5938 56.9881 94.5938ZM75.4888 87.3518C76.2141 87.3518 76.8544 87.4991 77.4098 87.7938C77.9764 88.0771 78.4184 88.5191 78.7358 89.1198C79.0644 89.7091 79.2288 90.4685 79.2288 91.3978V96.6338H76.5768V91.8058C76.5768 91.0691 76.4238 90.5251 76.1178 90.1738C75.8118 89.8225 75.3811 89.6468 74.8258 89.6468C74.4404 89.6468 74.0948 89.7375 73.7888 89.9188C73.4828 90.0888 73.2448 90.3495 73.0748 90.7008C72.9048 91.0521 72.8198 91.4998 72.8198 92.0438V96.6338H70.1678V91.8058C70.1678 91.0691 70.0148 90.5251 69.7088 90.1738C69.4141 89.8225 68.9891 89.6468 68.4338 89.6468C68.0484 89.6468 67.7028 89.7375 67.3968 89.9188C67.0908 90.0888 66.8528 90.3495 66.6828 90.7008C66.5128 91.0521 66.4278 91.4998 66.4278 92.0438V96.6338H63.7758V87.4878H66.3088V89.9868L65.8328 89.2558C66.1501 88.6325 66.5978 88.1621 67.1758 87.8448C67.7651 87.5161 68.4338 87.3518 69.1818 87.3518C70.0204 87.3518 70.7514 87.5671 71.3748 87.9978C72.0094 88.4171 72.4288 89.0631 72.6328 89.9358L71.6978 89.6808C72.0038 88.9668 72.4911 88.4001 73.1598 87.9808C73.8398 87.5615 74.6161 87.3518 75.4888 87.3518ZM86.2112 96.7698C85.1686 96.7698 84.2506 96.5658 83.4572 96.1578C82.6752 95.7498 82.0689 95.1945 81.6382 94.4918C81.2076 93.7778 80.9922 92.9675 80.9922 92.0608C80.9922 91.1428 81.2019 90.3325 81.6212 89.6298C82.0519 88.9158 82.6356 88.3605 83.3722 87.9638C84.1089 87.5558 84.9419 87.3518 85.8712 87.3518C86.7666 87.3518 87.5712 87.5445 88.2852 87.9298C89.0106 88.3038 89.5829 88.8478 90.0022 89.5618C90.4216 90.2645 90.6312 91.1088 90.6312 92.0948C90.6312 92.1968 90.6256 92.3158 90.6142 92.4518C90.6029 92.5765 90.5916 92.6955 90.5802 92.8088H83.1512V91.2618H89.1862L88.1662 91.7208C88.1662 91.2448 88.0699 90.8311 87.8772 90.4798C87.6846 90.1285 87.4182 89.8565 87.0782 89.6638C86.7382 89.4598 86.3416 89.3578 85.8882 89.3578C85.4349 89.3578 85.0326 89.4598 84.6812 89.6638C84.3412 89.8565 84.0749 90.1341 83.8822 90.4968C83.6896 90.8481 83.5932 91.2675 83.5932 91.7548V92.1628C83.5932 92.6615 83.7009 93.1035 83.9162 93.4888C84.1429 93.8628 84.4546 94.1518 84.8512 94.3558C85.2592 94.5485 85.7352 94.6448 86.2792 94.6448C86.7666 94.6448 87.1916 94.5711 87.5542 94.4238C87.9282 94.2765 88.2682 94.0555 88.5742 93.7608L89.9852 95.2908C89.5659 95.7668 89.0389 96.1351 88.4042 96.3958C87.7696 96.6451 87.0386 96.7698 86.2112 96.7698ZM105.766 96.7698C104.689 96.7698 103.85 96.4978 103.25 95.9538C102.649 95.3985 102.349 94.5768 102.349 93.4888V85.4648H105.001V93.4548C105.001 93.8401 105.103 94.1405 105.307 94.3558C105.511 94.5598 105.788 94.6618 106.14 94.6618C106.559 94.6618 106.916 94.5485 107.211 94.3218L107.925 96.1918C107.653 96.3845 107.324 96.5318 106.939 96.6338C106.565 96.7245 106.174 96.7698 105.766 96.7698ZM100.938 89.7318V87.6918H107.279V89.7318H100.938ZM113.483 96.7698C112.509 96.7698 111.642 96.5658 110.882 96.1578C110.134 95.7498 109.539 95.1945 109.097 94.4918C108.667 93.7778 108.451 92.9675 108.451 92.0608C108.451 91.1428 108.667 90.3325 109.097 89.6298C109.539 88.9158 110.134 88.3605 110.882 87.9638C111.642 87.5558 112.509 87.3518 113.483 87.3518C114.447 87.3518 115.308 87.5558 116.067 87.9638C116.827 88.3605 117.422 88.9101 117.852 89.6128C118.283 90.3155 118.498 91.1315 118.498 92.0608C118.498 92.9675 118.283 93.7778 117.852 94.4918C117.422 95.1945 116.827 95.7498 116.067 96.1578C115.308 96.5658 114.447 96.7698 113.483 96.7698ZM113.483 94.5938C113.925 94.5938 114.322 94.4918 114.673 94.2878C115.025 94.0838 115.302 93.7948 115.506 93.4208C115.71 93.0355 115.812 92.5821 115.812 92.0608C115.812 91.5281 115.71 91.0748 115.506 90.7008C115.302 90.3268 115.025 90.0378 114.673 89.8338C114.322 89.6298 113.925 89.5278 113.483 89.5278C113.041 89.5278 112.645 89.6298 112.293 89.8338C111.942 90.0378 111.659 90.3268 111.443 90.7008C111.239 91.0748 111.137 91.5281 111.137 92.0608C111.137 92.5821 111.239 93.0355 111.443 93.4208C111.659 93.7948 111.942 94.0838 112.293 94.2878C112.645 94.4918 113.041 94.5938 113.483 94.5938ZM123.708 96.6338L129.012 84.7338H131.732L137.053 96.6338H134.163L129.811 86.1278H130.899L126.53 96.6338H123.708ZM126.36 94.0838L127.091 91.9928H133.211L133.959 94.0838H126.36ZM141.945 96.7698C141.084 96.7698 140.307 96.5771 139.616 96.1918C138.925 95.7951 138.375 95.2455 137.967 94.5428C137.57 93.8401 137.372 93.0128 137.372 92.0608C137.372 91.0975 137.57 90.2645 137.967 89.5618C138.375 88.8591 138.925 88.3151 139.616 87.9298C140.307 87.5445 141.084 87.3518 141.945 87.3518C142.716 87.3518 143.39 87.5218 143.968 87.8618C144.546 88.2018 144.994 88.7175 145.311 89.4088C145.628 90.1001 145.787 90.9841 145.787 92.0608C145.787 93.1261 145.634 94.0101 145.328 94.7128C145.022 95.4041 144.58 95.9198 144.002 96.2598C143.435 96.5998 142.75 96.7698 141.945 96.7698ZM142.404 94.5938C142.835 94.5938 143.226 94.4918 143.577 94.2878C143.928 94.0838 144.206 93.7948 144.41 93.4208C144.625 93.0355 144.733 92.5821 144.733 92.0608C144.733 91.5281 144.625 91.0748 144.41 90.7008C144.206 90.3268 143.928 90.0378 143.577 89.8338C143.226 89.6298 142.835 89.5278 142.404 89.5278C141.962 89.5278 141.565 89.6298 141.214 89.8338C140.863 90.0378 140.579 90.3268 140.364 90.7008C140.16 91.0748 140.058 91.5281 140.058 92.0608C140.058 92.5821 140.16 93.0355 140.364 93.4208C140.579 93.7948 140.863 94.0838 141.214 94.2878C141.565 94.4918 141.962 94.5938 142.404 94.5938ZM144.801 96.6338V94.7638L144.852 92.0438L144.682 89.3408V84.0198H147.334V96.6338H144.801ZM161.501 87.3518C162.227 87.3518 162.867 87.4991 163.422 87.7938C163.989 88.0771 164.431 88.5191 164.748 89.1198C165.077 89.7091 165.241 90.4685 165.241 91.3978V96.6338H162.589V91.8058C162.589 91.0691 162.436 90.5251 162.13 90.1738C161.824 89.8225 161.394 89.6468 160.838 89.6468C160.453 89.6468 160.107 89.7375 159.801 89.9188C159.495 90.0888 159.257 90.3495 159.087 90.7008C158.917 91.0521 158.832 91.4998 158.832 92.0438V96.6338H156.18V91.8058C156.18 91.0691 156.027 90.5251 155.721 90.1738C155.427 89.8225 155.002 89.6468 154.446 89.6468C154.061 89.6468 153.715 89.7375 153.409 89.9188C153.103 90.0888 152.865 90.3495 152.695 90.7008C152.525 91.0521 152.44 91.4998 152.44 92.0438V96.6338H149.788V87.4878H152.321V89.9868L151.845 89.2558C152.163 88.6325 152.61 88.1621 153.188 87.8448C153.778 87.5161 154.446 87.3518 155.194 87.3518C156.033 87.3518 156.764 87.5671 157.387 87.9978C158.022 88.4171 158.441 89.0631 158.645 89.9358L157.71 89.6808C158.016 88.9668 158.504 88.4001 159.172 87.9808C159.852 87.5615 160.629 87.3518 161.501 87.3518ZM167.619 96.6338V87.4878H170.271V96.6338H167.619ZM168.945 86.2128C168.457 86.2128 168.061 86.0711 167.755 85.7878C167.449 85.5045 167.296 85.1531 167.296 84.7338C167.296 84.3145 167.449 83.9631 167.755 83.6798C168.061 83.3965 168.457 83.2548 168.945 83.2548C169.432 83.2548 169.829 83.3908 170.135 83.6628C170.441 83.9235 170.594 84.2635 170.594 84.6828C170.594 85.1248 170.441 85.4931 170.135 85.7878C169.84 86.0711 169.443 86.2128 168.945 86.2128ZM178.291 87.3518C179.016 87.3518 179.662 87.4991 180.229 87.7938C180.807 88.0771 181.26 88.5191 181.589 89.1198C181.917 89.7091 182.082 90.4685 182.082 91.3978V96.6338H179.43V91.8058C179.43 91.0691 179.265 90.5251 178.937 90.1738C178.619 89.8225 178.166 89.6468 177.577 89.6468C177.157 89.6468 176.778 89.7375 176.438 89.9188C176.109 90.0888 175.848 90.3551 175.656 90.7178C175.474 91.0805 175.384 91.5451 175.384 92.1118V96.6338H172.732V87.4878H175.265V90.0208L174.789 89.2558C175.117 88.6438 175.588 88.1735 176.2 87.8448C176.812 87.5161 177.509 87.3518 178.291 87.3518ZM189.487 96.6338V84.7338H192.241V94.3898H198.208V96.6338H189.487ZM203.862 96.7698C202.887 96.7698 202.02 96.5658 201.261 96.1578C200.513 95.7498 199.918 95.1945 199.476 94.4918C199.045 93.7778 198.83 92.9675 198.83 92.0608C198.83 91.1428 199.045 90.3325 199.476 89.6298C199.918 88.9158 200.513 88.3605 201.261 87.9638C202.02 87.5558 202.887 87.3518 203.862 87.3518C204.825 87.3518 205.687 87.5558 206.446 87.9638C207.205 88.3605 207.8 88.9101 208.231 89.6128C208.662 90.3155 208.877 91.1315 208.877 92.0608C208.877 92.9675 208.662 93.7778 208.231 94.4918C207.8 95.1945 207.205 95.7498 206.446 96.1578C205.687 96.5658 204.825 96.7698 203.862 96.7698ZM203.862 94.5938C204.304 94.5938 204.701 94.4918 205.052 94.2878C205.403 94.0838 205.681 93.7948 205.885 93.4208C206.089 93.0355 206.191 92.5821 206.191 92.0608C206.191 91.5281 206.089 91.0748 205.885 90.7008C205.681 90.3268 205.403 90.0378 205.052 89.8338C204.701 89.6298 204.304 89.5278 203.862 89.5278C203.42 89.5278 203.023 89.6298 202.672 89.8338C202.321 90.0378 202.037 90.3268 201.822 90.7008C201.618 91.0748 201.516 91.5281 201.516 92.0608C201.516 92.5821 201.618 93.0355 201.822 93.4208C202.037 93.7948 202.321 94.0838 202.672 94.2878C203.023 94.4918 203.42 94.5938 203.862 94.5938ZM214.951 100.068C214.089 100.068 213.256 99.9601 212.452 99.7448C211.658 99.5408 210.995 99.2291 210.463 98.8098L211.517 96.9058C211.902 97.2231 212.389 97.4725 212.979 97.6538C213.579 97.8465 214.169 97.9428 214.747 97.9428C215.687 97.9428 216.367 97.7331 216.787 97.3138C217.217 96.8945 217.433 96.2711 217.433 95.4438V94.0668L217.603 91.7718L217.569 89.4598V87.4878H220.085V95.1038C220.085 96.8038 219.643 98.0561 218.759 98.8608C217.875 99.6655 216.605 100.068 214.951 100.068ZM214.543 96.1918C213.693 96.1918 212.922 96.0105 212.231 95.6478C211.551 95.2738 211.001 94.7581 210.582 94.1008C210.174 93.4321 209.97 92.6558 209.97 91.7718C209.97 90.8765 210.174 90.1001 210.582 89.4428C211.001 88.7741 211.551 88.2585 212.231 87.8958C212.922 87.5331 213.693 87.3518 214.543 87.3518C215.313 87.3518 215.993 87.5105 216.583 87.8278C217.172 88.1338 217.631 88.6155 217.96 89.2728C218.288 89.9188 218.453 90.7518 218.453 91.7718C218.453 92.7805 218.288 93.6135 217.96 94.2708C217.631 94.9168 217.172 95.3985 216.583 95.7158C215.993 96.0331 215.313 96.1918 214.543 96.1918ZM215.07 94.0158C215.534 94.0158 215.948 93.9251 216.311 93.7438C216.673 93.5511 216.957 93.2848 217.161 92.9448C217.365 92.6048 217.467 92.2138 217.467 91.7718C217.467 91.3185 217.365 90.9275 217.161 90.5988C216.957 90.2588 216.673 89.9981 216.311 89.8168C215.948 89.6241 215.534 89.5278 215.07 89.5278C214.605 89.5278 214.191 89.6241 213.829 89.8168C213.466 89.9981 213.177 90.2588 212.962 90.5988C212.758 90.9275 212.656 91.3185 212.656 91.7718C212.656 92.2138 212.758 92.6048 212.962 92.9448C213.177 93.2848 213.466 93.5511 213.829 93.7438C214.191 93.9251 214.605 94.0158 215.07 94.0158ZM222.553 96.6338V87.4878H225.205V96.6338H222.553ZM223.879 86.2128C223.392 86.2128 222.995 86.0711 222.689 85.7878C222.383 85.5045 222.23 85.1531 222.23 84.7338C222.23 84.3145 222.383 83.9631 222.689 83.6798C222.995 83.3965 223.392 83.2548 223.879 83.2548C224.366 83.2548 224.763 83.3908 225.069 83.6628C225.375 83.9235 225.528 84.2635 225.528 84.6828C225.528 85.1248 225.375 85.4931 225.069 85.7878C224.774 86.0711 224.378 86.2128 223.879 86.2128ZM233.225 87.3518C233.951 87.3518 234.597 87.4991 235.163 87.7938C235.741 88.0771 236.195 88.5191 236.523 89.1198C236.852 89.7091 237.016 90.4685 237.016 91.3978V96.6338H234.364V91.8058C234.364 91.0691 234.2 90.5251 233.871 90.1738C233.554 89.8225 233.101 89.6468 232.511 89.6468C232.092 89.6468 231.712 89.7375 231.372 89.9188C231.044 90.0888 230.783 90.3551 230.59 90.7178C230.409 91.0805 230.318 91.5451 230.318 92.1118V96.6338H227.666V87.4878H230.199V90.0208L229.723 89.2558C230.052 88.6438 230.522 88.1735 231.134 87.8448C231.746 87.5161 232.443 87.3518 233.225 87.3518Z" fill="black"/>
</svg>
