<svg width="44" height="44" viewBox="0 0 44 44" fill="none" xmlns="http://www.w3.org/2000/svg">
<rect width="44" height="44" rx="12" fill="#EFF0F6"/>
<path d="M29.5 12H14.5C12.019 12 10 14.019 10 16.5V27.5C10 29.981 12.019 32 14.5 32H29.5C31.981 32 34 29.981 34 27.5V16.5C34 14.019 31.981 12 29.5 12ZM14.5 13H29.5C30.584 13 31.543 13.506 32.186 14.283L24.495 21.975C23.833 22.636 22.938 23 21.998 23C21.084 22.983 20.172 22.64 19.506 21.975L11.814 14.283C12.457 13.506 13.415 13 14.5 13ZM33 27.5C33 29.43 31.43 31 29.5 31H14.5C12.57 31 11 29.43 11 27.5V16.5C11 16.023 11.097 15.569 11.271 15.154L18.799 22.682C19.65 23.533 20.779 24 21.976 24C23.173 24 24.351 23.533 25.202 22.682L32.73 15.154C32.904 15.569 33.001 16.023 33.001 16.5L33 27.5Z" fill="#A237FF"/>
</svg>
