<svg width="44" height="44" viewBox="0 0 44 44" fill="none" xmlns="http://www.w3.org/2000/svg">
<rect width="44" height="43.999" rx="12" fill="#EFF0F6"/>
<g clip-path="url(#clip0_122_345)">
<path d="M22.091 33.999L21.387 33.404C19.185 31.541 12 25.076 12 20.091C12 14.527 16.527 10 22.091 10C27.655 10 32.182 14.527 32.182 20.091C32.182 25.076 24.997 31.541 22.795 33.404L22.091 33.999ZM22.091 11C17.078 11 13 15.078 13 20.091C13 24.763 20.524 31.364 22.032 32.641L22.091 32.691L22.15 32.641C23.658 31.365 31.182 24.763 31.182 20.091C31.182 15.078 27.104 11 22.091 11Z" fill="#A237FF"/>
<path d="M22 23.9995C19.794 23.9995 18 22.2055 18 19.9995C18 17.7935 19.794 15.9995 22 15.9995C24.206 15.9995 26 17.7935 26 19.9995C26 22.2055 24.206 23.9995 22 23.9995ZM22 16.9995C20.346 16.9995 19 18.3455 19 19.9995C19 21.6535 20.346 22.9995 22 22.9995C23.654 22.9995 25 21.6535 25 19.9995C25 18.3455 23.654 16.9995 22 16.9995Z" fill="#A237FF"/>
</g>
<defs>
<clipPath id="clip0_122_345">
<rect width="24" height="23.999" fill="white" transform="translate(10 10)"/>
</clipPath>
</defs>
</svg>
