<svg width="44" height="44" viewBox="0 0 44 44" fill="none" xmlns="http://www.w3.org/2000/svg">
<rect width="44" height="44" rx="12" fill="#EFF0F6"/>
<g clip-path="url(#clip0_122_353)">
<path d="M11.73 11.7702L12.85 10.7902C13.87 9.7702 15.6 9.7202 16.7 10.8402L18.57 13.2902C19.62 14.3402 19.62 16.0502 18.57 17.0902L17.08 18.6202C18.7 22.4202 21.69 25.4202 25.37 26.9202L26.9 25.4302C27.41 24.9202 28.08 24.6402 28.8 24.6402C29.52 24.6402 30.19 24.9202 30.65 25.3902L33.19 27.3502C34.24 28.4002 34.24 30.1102 33.21 31.1302L32.19 32.3002C31.09 33.4002 29.61 34.0102 28 34.0102C20.25 34.0102 9.98 23.7302 9.98 15.9902C9.98 14.3902 10.59 12.9002 11.71 11.7802L11.73 11.7702ZM28.02 33.0002C29.36 33.0002 30.59 32.5002 31.48 31.6102L32.5 30.4302C33.16 29.7702 33.16 28.7002 32.55 28.0802L30.01 26.1202C29.69 25.8002 29.27 25.6202 28.81 25.6202C28.35 25.6202 27.93 25.8002 27.61 26.1202L25.84 27.8502C25.7 27.9902 25.5 28.0302 25.31 27.9602C21.14 26.3702 17.75 22.9802 16.02 18.6802C15.95 18.5002 15.99 18.2902 16.13 18.1402L17.86 16.3702C18.52 15.7102 18.52 14.6402 17.82 13.9302L15.95 11.4802C15.29 10.8202 14.22 10.8202 13.53 11.5002L12.41 12.4802C11.5 13.3902 11 14.6202 11 15.9602C11 23.1202 20.86 32.9802 28.02 32.9802V33.0002Z" fill="#A237FF"/>
</g>
<defs>
<clipPath id="clip0_122_353">
<rect width="24" height="24" fill="white" transform="matrix(-1 0 0 1 34 10)"/>
</clipPath>
</defs>
</svg>
