<svg width="44" height="44" viewBox="0 0 44 44" fill="none" xmlns="http://www.w3.org/2000/svg">
<rect width="44" height="44" rx="12" fill="#EFF0F6"/>
<g clip-path="url(#clip0_122_416)">
<path d="M22 34C15.383 34 10 28.617 10 22C10 15.383 15.383 10 22 10C28.617 10 34 15.383 34 22C34 28.617 28.617 34 22 34ZM22 11C15.935 11 11 15.935 11 22C11 28.065 15.935 33 22 33C28.065 33 33 28.065 33 22C33 15.935 28.065 11 22 11ZM27 22.5C27 22.224 26.776 22 26.5 22H22V15.5C22 15.224 21.776 15 21.5 15C21.224 15 21 15.224 21 15.5V22.5C21 22.776 21.224 23 21.5 23H26.5C26.776 23 27 22.776 27 22.5Z" fill="#A237FF"/>
</g>
<defs>
<clipPath id="clip0_122_416">
<rect width="24" height="24" fill="white" transform="translate(10 10)"/>
</clipPath>
</defs>
</svg>
